<?xml version="1.0" encoding="UTF-8" standalone="no"?>
<!DOCTYPE svg PUBLIC "-//W3C//DTD SVG 1.1//EN"
 "http://www.w3.org/Graphics/SVG/1.1/DTD/svg11.dtd">
<!-- Generated by graphviz version 2.38.0 (20140413.2041)
 -->
<!-- Title: controllers_diagram Pages: 1 -->
<svg width="696pt" height="724pt"
 viewBox="0.00 0.00 695.54 724.16" xmlns="http://www.w3.org/2000/svg" xmlns:xlink="http://www.w3.org/1999/xlink">
<g id="graph0" class="graph" transform="scale(1 1) rotate(0) translate(243.848 336.34)">
<title>controllers_diagram</title>
<polygon fill="white" stroke="none" points="-243.848,387.822 -243.848,-336.34 451.688,-336.34 451.688,387.822 -243.848,387.822"/>
<!-- _diagram_info -->
<g id="node1" class="node"><title>_diagram_info</title>
<text text-anchor="start" x="248.312" y="36.9" font-family="Times,serif" font-size="13.00">Controllers diagram</text>
<text text-anchor="start" x="248.312" y="49.9" font-family="Times,serif" font-size="13.00">Date: Feb 24 2015 &#45; 00:43</text>
<text text-anchor="start" x="248.312" y="62.9" font-family="Times,serif" font-size="13.00">Migration version: 20150219120843</text>
<text text-anchor="start" x="248.312" y="75.9" font-family="Times,serif" font-size="13.00">Generated by RailRoady 1.3.0</text>
<text text-anchor="start" x="248.312" y="88.9" font-family="Times,serif" font-size="13.00">http://railroady.prestonlee.com</text>
</g>
<!-- ApplicationController -->
<g id="node2" class="node"><title>ApplicationController</title>
<path fill="none" stroke="black" d="M27.4852,90.2875C27.4852,90.2875 143.127,90.2875 143.127,90.2875 149.127,90.2875 155.127,84.2875 155.127,78.2875 155.127,78.2875 155.127,10.2875 155.127,10.2875 155.127,4.28754 149.127,-1.71246 143.127,-1.71246 143.127,-1.71246 27.4852,-1.71246 27.4852,-1.71246 21.4852,-1.71246 15.4852,4.28754 15.4852,10.2875 15.4852,10.2875 15.4852,78.2875 15.4852,78.2875 15.4852,84.2875 21.4852,90.2875 27.4852,90.2875"/>
<text text-anchor="middle" x="85.306" y="13.4875" font-family="Times,serif" font-size="14.00">ApplicationController</text>
<polyline fill="none" stroke="black" points="15.4852,20.2875 155.127,20.2875 "/>
<polyline fill="none" stroke="black" points="15.4852,44.2875 155.127,44.2875 "/>
<polyline fill="none" stroke="black" points="15.4852,68.2875 155.127,68.2875 "/>
<text text-anchor="start" x="23.4852" y="83.4875" font-family="Times,serif" font-size="14.00">_layout</text>
</g>
<!-- ChannelsController -->
<g id="node3" class="node"><title>ChannelsController</title>
<path fill="none" stroke="black" d="M143.001,366.61C143.001,366.61 244.65,366.61 244.65,366.61 250.65,366.61 256.65,360.61 256.65,354.61 256.65,354.61 256.65,176.61 256.65,176.61 256.65,170.61 250.65,164.61 244.65,164.61 244.65,164.61 143.001,164.61 143.001,164.61 137.001,164.61 131.001,170.61 131.001,176.61 131.001,176.61 131.001,354.61 131.001,354.61 131.001,360.61 137.001,366.61 143.001,366.61"/>
<text text-anchor="middle" x="193.826" y="179.81" font-family="Times,serif" font-size="14.00">ChannelsController</text>
<polyline fill="none" stroke="black" points="131.001,186.61 256.65,186.61 "/>
<text text-anchor="start" x="139.001" y="201.81" font-family="Times,serif" font-size="14.00">create</text>
<text text-anchor="start" x="139.001" y="215.81" font-family="Times,serif" font-size="14.00">destroy</text>
<text text-anchor="start" x="139.001" y="229.81" font-family="Times,serif" font-size="14.00">edit</text>
<text text-anchor="start" x="139.001" y="243.81" font-family="Times,serif" font-size="14.00">index</text>
<text text-anchor="start" x="139.001" y="257.81" font-family="Times,serif" font-size="14.00">new</text>
<text text-anchor="start" x="139.001" y="271.81" font-family="Times,serif" font-size="14.00">show</text>
<text text-anchor="start" x="139.001" y="285.81" font-family="Times,serif" font-size="14.00">update</text>
<polyline fill="none" stroke="black" points="131.001,292.61 256.65,292.61 "/>
<polyline fill="none" stroke="black" points="131.001,316.61 256.65,316.61 "/>
<text text-anchor="start" x="139.001" y="331.81" font-family="Times,serif" font-size="14.00">_layout</text>
<text text-anchor="start" x="139.001" y="345.81" font-family="Times,serif" font-size="14.00">channel_params</text>
<text text-anchor="start" x="139.001" y="359.81" font-family="Times,serif" font-size="14.00">set_channel</text>
</g>
<!-- ApplicationController&#45;&gt;ChannelsController -->
<g id="edge1" class="edge"><title>ApplicationController&#45;&gt;ChannelsController</title>
<path fill="none" stroke="black" d="M107.923,90.4146C118.483,111.951 131.501,138.501 144.18,164.36"/>
</g>
<!-- CommentsController -->
<g id="node4" class="node"><title>CommentsController</title>
<path fill="none" stroke="black" d="M-180.669,383.322C-180.669,383.322 -70.4547,383.322 -70.4547,383.322 -64.4547,383.322 -58.4547,377.322 -58.4547,371.322 -58.4547,371.322 -58.4547,193.322 -58.4547,193.322 -58.4547,187.322 -64.4547,181.322 -70.4547,181.322 -70.4547,181.322 -180.669,181.322 -180.669,181.322 -186.669,181.322 -192.669,187.322 -192.669,193.322 -192.669,193.322 -192.669,371.322 -192.669,371.322 -192.669,377.322 -186.669,383.322 -180.669,383.322"/>
<text text-anchor="middle" x="-125.562" y="196.522" font-family="Times,serif" font-size="14.00">CommentsController</text>
<polyline fill="none" stroke="black" points="-192.669,203.322 -58.4547,203.322 "/>
<text text-anchor="start" x="-184.669" y="218.522" font-family="Times,serif" font-size="14.00">create</text>
<text text-anchor="start" x="-184.669" y="232.522" font-family="Times,serif" font-size="14.00">destroy</text>
<text text-anchor="start" x="-184.669" y="246.522" font-family="Times,serif" font-size="14.00">edit</text>
<text text-anchor="start" x="-184.669" y="260.522" font-family="Times,serif" font-size="14.00">index</text>
<text text-anchor="start" x="-184.669" y="274.522" font-family="Times,serif" font-size="14.00">new</text>
<text text-anchor="start" x="-184.669" y="288.522" font-family="Times,serif" font-size="14.00">show</text>
<text text-anchor="start" x="-184.669" y="302.522" font-family="Times,serif" font-size="14.00">update</text>
<polyline fill="none" stroke="black" points="-192.669,309.322 -58.4547,309.322 "/>
<polyline fill="none" stroke="black" points="-192.669,333.322 -58.4547,333.322 "/>
<text text-anchor="start" x="-184.669" y="348.522" font-family="Times,serif" font-size="14.00">_layout</text>
<text text-anchor="start" x="-184.669" y="362.522" font-family="Times,serif" font-size="14.00">comment_params</text>
<text text-anchor="start" x="-184.669" y="376.522" font-family="Times,serif" font-size="14.00">set_comment</text>
</g>
<!-- ApplicationController&#45;&gt;CommentsController -->
<g id="edge2" class="edge"><title>ApplicationController&#45;&gt;CommentsController</title>
<path fill="none" stroke="black" d="M44.3985,90.4652C15.2948,123.318 -24.4673,168.203 -58.215,206.299"/>
</g>
<!-- DocumentsController -->
<g id="node5" class="node"><title>DocumentsController</title>
<path fill="none" stroke="black" d="M-227.848,105.457C-227.848,105.457 -114.538,105.457 -114.538,105.457 -108.538,105.457 -102.538,99.4566 -102.538,93.4566 -102.538,93.4566 -102.538,-84.5434 -102.538,-84.5434 -102.538,-90.5434 -108.538,-96.5434 -114.538,-96.5434 -114.538,-96.5434 -227.848,-96.5434 -227.848,-96.5434 -233.848,-96.5434 -239.848,-90.5434 -239.848,-84.5434 -239.848,-84.5434 -239.848,93.4566 -239.848,93.4566 -239.848,99.4566 -233.848,105.457 -227.848,105.457"/>
<text text-anchor="middle" x="-171.193" y="-81.3434" font-family="Times,serif" font-size="14.00">DocumentsController</text>
<polyline fill="none" stroke="black" points="-239.848,-74.5434 -102.538,-74.5434 "/>
<text text-anchor="start" x="-231.848" y="-59.3434" font-family="Times,serif" font-size="14.00">create</text>
<text text-anchor="start" x="-231.848" y="-45.3434" font-family="Times,serif" font-size="14.00">destroy</text>
<text text-anchor="start" x="-231.848" y="-31.3434" font-family="Times,serif" font-size="14.00">edit</text>
<text text-anchor="start" x="-231.848" y="-17.3434" font-family="Times,serif" font-size="14.00">index</text>
<text text-anchor="start" x="-231.848" y="-3.34342" font-family="Times,serif" font-size="14.00">new</text>
<text text-anchor="start" x="-231.848" y="10.6566" font-family="Times,serif" font-size="14.00">show</text>
<text text-anchor="start" x="-231.848" y="24.6566" font-family="Times,serif" font-size="14.00">update</text>
<polyline fill="none" stroke="black" points="-239.848,31.4566 -102.538,31.4566 "/>
<polyline fill="none" stroke="black" points="-239.848,55.4566 -102.538,55.4566 "/>
<text text-anchor="start" x="-231.848" y="70.6566" font-family="Times,serif" font-size="14.00">_layout</text>
<text text-anchor="start" x="-231.848" y="84.6566" font-family="Times,serif" font-size="14.00">document_params</text>
<text text-anchor="start" x="-231.848" y="98.6566" font-family="Times,serif" font-size="14.00">set_document</text>
</g>
<!-- ApplicationController&#45;&gt;DocumentsController -->
<g id="edge3" class="edge"><title>ApplicationController&#45;&gt;DocumentsController</title>
<path fill="none" stroke="black" d="M15.2165,33.4036C-21.4209,27.7143 -66.0922,20.7774 -102.519,15.1207"/>
</g>
<!-- EventsController -->
<g id="node6" class="node"><title>EventsController</title>
<path fill="none" stroke="black" d="M161.301,-75.9846C161.301,-75.9846 248.949,-75.9846 248.949,-75.9846 254.949,-75.9846 260.949,-81.9846 260.949,-87.9846 260.949,-87.9846 260.949,-265.985 260.949,-265.985 260.949,-271.985 254.949,-277.985 248.949,-277.985 248.949,-277.985 161.301,-277.985 161.301,-277.985 155.301,-277.985 149.301,-271.985 149.301,-265.985 149.301,-265.985 149.301,-87.9846 149.301,-87.9846 149.301,-81.9846 155.301,-75.9846 161.301,-75.9846"/>
<text text-anchor="middle" x="205.125" y="-262.785" font-family="Times,serif" font-size="14.00">EventsController</text>
<polyline fill="none" stroke="black" points="149.301,-255.985 260.949,-255.985 "/>
<text text-anchor="start" x="157.301" y="-240.785" font-family="Times,serif" font-size="14.00">create</text>
<text text-anchor="start" x="157.301" y="-226.785" font-family="Times,serif" font-size="14.00">destroy</text>
<text text-anchor="start" x="157.301" y="-212.785" font-family="Times,serif" font-size="14.00">edit</text>
<text text-anchor="start" x="157.301" y="-198.785" font-family="Times,serif" font-size="14.00">index</text>
<text text-anchor="start" x="157.301" y="-184.785" font-family="Times,serif" font-size="14.00">new</text>
<text text-anchor="start" x="157.301" y="-170.785" font-family="Times,serif" font-size="14.00">show</text>
<text text-anchor="start" x="157.301" y="-156.785" font-family="Times,serif" font-size="14.00">update</text>
<polyline fill="none" stroke="black" points="149.301,-149.985 260.949,-149.985 "/>
<polyline fill="none" stroke="black" points="149.301,-125.985 260.949,-125.985 "/>
<text text-anchor="start" x="157.301" y="-110.785" font-family="Times,serif" font-size="14.00">_layout</text>
<text text-anchor="start" x="157.301" y="-96.7846" font-family="Times,serif" font-size="14.00">event_params</text>
<text text-anchor="start" x="157.301" y="-82.7846" font-family="Times,serif" font-size="14.00">set_event</text>
</g>
<!-- ApplicationController&#45;&gt;EventsController -->
<g id="edge4" class="edge"><title>ApplicationController&#45;&gt;EventsController</title>
<path fill="none" stroke="black" d="M110.278,-1.82901C121.938,-23.3607 136.311,-49.904 150.31,-75.7572"/>
</g>
<!-- MediasController -->
<g id="node7" class="node"><title>MediasController</title>
<path fill="none" stroke="black" d="M-147.132,-129.84C-147.132,-129.84 -56.3734,-129.84 -56.3734,-129.84 -50.3734,-129.84 -44.3734,-135.84 -44.3734,-141.84 -44.3734,-141.84 -44.3734,-319.84 -44.3734,-319.84 -44.3734,-325.84 -50.3734,-331.84 -56.3734,-331.84 -56.3734,-331.84 -147.132,-331.84 -147.132,-331.84 -153.132,-331.84 -159.132,-325.84 -159.132,-319.84 -159.132,-319.84 -159.132,-141.84 -159.132,-141.84 -159.132,-135.84 -153.132,-129.84 -147.132,-129.84"/>
<text text-anchor="middle" x="-101.753" y="-316.64" font-family="Times,serif" font-size="14.00">MediasController</text>
<polyline fill="none" stroke="black" points="-159.132,-309.84 -44.3734,-309.84 "/>
<text text-anchor="start" x="-151.132" y="-294.64" font-family="Times,serif" font-size="14.00">create</text>
<text text-anchor="start" x="-151.132" y="-280.64" font-family="Times,serif" font-size="14.00">destroy</text>
<text text-anchor="start" x="-151.132" y="-266.64" font-family="Times,serif" font-size="14.00">edit</text>
<text text-anchor="start" x="-151.132" y="-252.64" font-family="Times,serif" font-size="14.00">index</text>
<text text-anchor="start" x="-151.132" y="-238.64" font-family="Times,serif" font-size="14.00">new</text>
<text text-anchor="start" x="-151.132" y="-224.64" font-family="Times,serif" font-size="14.00">show</text>
<text text-anchor="start" x="-151.132" y="-210.64" font-family="Times,serif" font-size="14.00">update</text>
<polyline fill="none" stroke="black" points="-159.132,-203.84 -44.3734,-203.84 "/>
<polyline fill="none" stroke="black" points="-159.132,-179.84 -44.3734,-179.84 "/>
<text text-anchor="start" x="-151.132" y="-164.64" font-family="Times,serif" font-size="14.00">_layout</text>
<text text-anchor="start" x="-151.132" y="-150.64" font-family="Times,serif" font-size="14.00">media_params</text>
<text text-anchor="start" x="-151.132" y="-136.64" font-family="Times,serif" font-size="14.00">set_media</text>
</g>
<!-- ApplicationController&#45;&gt;MediasController -->
<g id="edge5" class="edge"><title>ApplicationController&#45;&gt;MediasController</title>
<path fill="none" stroke="black" d="M53.9965,-1.76264C27.267,-41.0767 -11.8707,-98.6408 -44.2253,-146.228"/>
</g>
</g>
</svg>
