<?xml version="1.0" encoding="UTF-8" standalone="no"?>
<!DOCTYPE svg PUBLIC "-//W3C//DTD SVG 1.1//EN"
 "http://www.w3.org/Graphics/SVG/1.1/DTD/svg11.dtd">
<!-- Generated by graphviz version 2.38.0 (20140413.2041)
 -->
<!-- Title: models_diagram Pages: 1 -->
<svg width="1647pt" height="1189pt"
 viewBox="0.00 0.00 1646.90 1189.00" xmlns="http://www.w3.org/2000/svg" xmlns:xlink="http://www.w3.org/1999/xlink">
<g id="graph0" class="graph" transform="scale(1 1) rotate(0) translate(4 1185)">
<title>models_diagram</title>
<polygon fill="white" stroke="none" points="-4,4 -4,-1185 1642.9,-1185 1642.9,4 -4,4"/>
<!-- _diagram_info -->
<g id="node1" class="node"><title>_diagram_info</title>
<text text-anchor="start" x="402.818" y="-1166.6" font-family="Times,serif" font-size="13.00">Models diagram</text>
<text text-anchor="start" x="402.818" y="-1153.6" font-family="Times,serif" font-size="13.00">Date: Feb 24 2015 &#45; 00:43</text>
<text text-anchor="start" x="402.818" y="-1140.6" font-family="Times,serif" font-size="13.00">Migration version: 20150219120843</text>
<text text-anchor="start" x="402.818" y="-1127.6" font-family="Times,serif" font-size="13.00">Generated by RailRoady 1.3.0</text>
<text text-anchor="start" x="402.818" y="-1114.6" font-family="Times,serif" font-size="13.00">http://railroady.prestonlee.com</text>
</g>
<!-- Bin -->
<g id="node2" class="node"><title>Bin</title>
<path fill="none" stroke="black" d="M97,-277.5C97,-277.5 206.011,-277.5 206.011,-277.5 212.011,-277.5 218.011,-283.5 218.011,-289.5 218.011,-289.5 218.011,-379.5 218.011,-379.5 218.011,-385.5 212.011,-391.5 206.011,-391.5 206.011,-391.5 97,-391.5 97,-391.5 91,-391.5 85,-385.5 85,-379.5 85,-379.5 85,-289.5 85,-289.5 85,-283.5 91,-277.5 97,-277.5"/>
<text text-anchor="middle" x="151.505" y="-376.3" font-family="Times,serif" font-size="14.00">Bin</text>
<polyline fill="none" stroke="black" points="85,-369.5 218.011,-369.5 "/>
<text text-anchor="start" x="93" y="-354.3" font-family="Times,serif" font-size="14.00">id :integer</text>
<text text-anchor="start" x="93" y="-340.3" font-family="Times,serif" font-size="14.00">title :string</text>
<text text-anchor="start" x="93" y="-326.3" font-family="Times,serif" font-size="14.00">event_id :uuid</text>
<text text-anchor="start" x="93" y="-312.3" font-family="Times,serif" font-size="14.00">is_display :boolean</text>
<text text-anchor="start" x="93" y="-298.3" font-family="Times,serif" font-size="14.00">created_at :datetime</text>
<text text-anchor="start" x="93" y="-284.3" font-family="Times,serif" font-size="14.00">updated_at :datetime</text>
</g>
<!-- Document -->
<g id="node6" class="node"><title>Document</title>
<path fill="none" stroke="black" d="M12,-0.5C12,-0.5 121.011,-0.5 121.011,-0.5 127.011,-0.5 133.011,-6.5 133.011,-12.5 133.011,-12.5 133.011,-158.5 133.011,-158.5 133.011,-164.5 127.011,-170.5 121.011,-170.5 121.011,-170.5 12,-170.5 12,-170.5 6,-170.5 0,-164.5 0,-158.5 0,-158.5 0,-12.5 0,-12.5 0,-6.5 6,-0.5 12,-0.5"/>
<text text-anchor="middle" x="66.5054" y="-155.3" font-family="Times,serif" font-size="14.00">Document</text>
<polyline fill="none" stroke="black" points="0,-148.5 133.011,-148.5 "/>
<text text-anchor="start" x="8" y="-133.3" font-family="Times,serif" font-size="14.00">id :integer</text>
<text text-anchor="start" x="8" y="-119.3" font-family="Times,serif" font-size="14.00">title :string</text>
<text text-anchor="start" x="8" y="-105.3" font-family="Times,serif" font-size="14.00">bin_id :integer</text>
<text text-anchor="start" x="8" y="-91.3" font-family="Times,serif" font-size="14.00">is_display :boolean</text>
<text text-anchor="start" x="8" y="-77.3" font-family="Times,serif" font-size="14.00">authors :string</text>
<text text-anchor="start" x="8" y="-63.3" font-family="Times,serif" font-size="14.00">file :string</text>
<text text-anchor="start" x="8" y="-49.3" font-family="Times,serif" font-size="14.00">added_by :string</text>
<text text-anchor="start" x="8" y="-35.3" font-family="Times,serif" font-size="14.00">description :text</text>
<text text-anchor="start" x="8" y="-21.3" font-family="Times,serif" font-size="14.00">created_at :datetime</text>
<text text-anchor="start" x="8" y="-7.3" font-family="Times,serif" font-size="14.00">updated_at :datetime</text>
</g>
<!-- Bin&#45;&gt;Document -->
<g id="edge1" class="edge"><title>Bin&#45;&gt;Document</title>
<path fill="none" stroke="#c29c3d" d="M129.498,-269.548C120.162,-242.421 109.093,-210.255 98.8577,-180.512"/>
<ellipse fill="none" stroke="#c29c3d" cx="130.916" cy="-273.67" rx="4.00001" ry="4.00001"/>
<polygon fill="#c29c3d" stroke="#c29c3d" points="98.8212,-180.406 99.8222,-169.486 97.1942,-175.678 95.5671,-170.95 95.5671,-170.95 95.5671,-170.95 97.1942,-175.678 91.312,-172.414 98.8212,-180.406 98.8212,-180.406"/>
</g>
<!-- Label -->
<g id="node8" class="node"><title>Label</title>
<path fill="none" stroke="black" d="M182,-0.5C182,-0.5 291.011,-0.5 291.011,-0.5 297.011,-0.5 303.011,-6.5 303.011,-12.5 303.011,-12.5 303.011,-158.5 303.011,-158.5 303.011,-164.5 297.011,-170.5 291.011,-170.5 291.011,-170.5 182,-170.5 182,-170.5 176,-170.5 170,-164.5 170,-158.5 170,-158.5 170,-12.5 170,-12.5 170,-6.5 176,-0.5 182,-0.5"/>
<text text-anchor="middle" x="236.505" y="-155.3" font-family="Times,serif" font-size="14.00">Label</text>
<polyline fill="none" stroke="black" points="170,-148.5 303.011,-148.5 "/>
<text text-anchor="start" x="178" y="-133.3" font-family="Times,serif" font-size="14.00">id :integer</text>
<text text-anchor="start" x="178" y="-119.3" font-family="Times,serif" font-size="14.00">title :string</text>
<text text-anchor="start" x="178" y="-105.3" font-family="Times,serif" font-size="14.00">bin_id :integer</text>
<text text-anchor="start" x="178" y="-91.3" font-family="Times,serif" font-size="14.00">is_display :boolean</text>
<text text-anchor="start" x="178" y="-77.3" font-family="Times,serif" font-size="14.00">authors :string</text>
<text text-anchor="start" x="178" y="-63.3" font-family="Times,serif" font-size="14.00">file :string</text>
<text text-anchor="start" x="178" y="-49.3" font-family="Times,serif" font-size="14.00">added_by :string</text>
<text text-anchor="start" x="178" y="-35.3" font-family="Times,serif" font-size="14.00">description :text</text>
<text text-anchor="start" x="178" y="-21.3" font-family="Times,serif" font-size="14.00">created_at :datetime</text>
<text text-anchor="start" x="178" y="-7.3" font-family="Times,serif" font-size="14.00">updated_at :datetime</text>
</g>
<!-- Bin&#45;&gt;Label -->
<g id="edge2" class="edge"><title>Bin&#45;&gt;Label</title>
<path fill="none" stroke="#edccb4" d="M173.513,-269.548C182.848,-242.421 193.918,-210.255 204.153,-180.512"/>
<ellipse fill="none" stroke="#edccb4" cx="172.095" cy="-273.67" rx="4.00001" ry="4.00001"/>
<polygon fill="#edccb4" stroke="#edccb4" points="204.19,-180.406 211.699,-172.414 205.817,-175.678 207.444,-170.95 207.444,-170.95 207.444,-170.95 205.817,-175.678 203.189,-169.486 204.19,-180.406 204.19,-180.406"/>
</g>
<!-- CategoryOfPlaylistsChannel -->
<g id="node3" class="node"><title>CategoryOfPlaylistsChannel</title>
<path fill="none" stroke="black" d="M324.405,-270.5C324.405,-270.5 476.605,-270.5 476.605,-270.5 482.605,-270.5 488.605,-276.5 488.605,-282.5 488.605,-282.5 488.605,-386.5 488.605,-386.5 488.605,-392.5 482.605,-398.5 476.605,-398.5 476.605,-398.5 324.405,-398.5 324.405,-398.5 318.405,-398.5 312.405,-392.5 312.405,-386.5 312.405,-386.5 312.405,-282.5 312.405,-282.5 312.405,-276.5 318.405,-270.5 324.405,-270.5"/>
<text text-anchor="middle" x="400.505" y="-383.3" font-family="Times,serif" font-size="14.00">CategoryOfPlaylistsChannel</text>
<polyline fill="none" stroke="black" points="312.405,-376.5 488.605,-376.5 "/>
<text text-anchor="start" x="320.405" y="-361.3" font-family="Times,serif" font-size="14.00">id :integer</text>
<text text-anchor="start" x="320.405" y="-347.3" font-family="Times,serif" font-size="14.00">title :string</text>
<text text-anchor="start" x="320.405" y="-333.3" font-family="Times,serif" font-size="14.00">description :text</text>
<text text-anchor="start" x="320.405" y="-319.3" font-family="Times,serif" font-size="14.00">cover :string</text>
<text text-anchor="start" x="320.405" y="-305.3" font-family="Times,serif" font-size="14.00">channel_uid :uuid</text>
<text text-anchor="start" x="320.405" y="-291.3" font-family="Times,serif" font-size="14.00">created_at :datetime</text>
<text text-anchor="start" x="320.405" y="-277.3" font-family="Times,serif" font-size="14.00">updated_at :datetime</text>
</g>
<!-- Playlist -->
<g id="node12" class="node"><title>Playlist</title>
<path fill="none" stroke="black" d="M462,-21.5C462,-21.5 571.011,-21.5 571.011,-21.5 577.011,-21.5 583.011,-27.5 583.011,-33.5 583.011,-33.5 583.011,-137.5 583.011,-137.5 583.011,-143.5 577.011,-149.5 571.011,-149.5 571.011,-149.5 462,-149.5 462,-149.5 456,-149.5 450,-143.5 450,-137.5 450,-137.5 450,-33.5 450,-33.5 450,-27.5 456,-21.5 462,-21.5"/>
<text text-anchor="middle" x="516.505" y="-134.3" font-family="Times,serif" font-size="14.00">Playlist</text>
<polyline fill="none" stroke="black" points="450,-127.5 583.011,-127.5 "/>
<text text-anchor="start" x="458" y="-112.3" font-family="Times,serif" font-size="14.00">id :uuid</text>
<text text-anchor="start" x="458" y="-98.3" font-family="Times,serif" font-size="14.00">title :string</text>
<text text-anchor="start" x="458" y="-84.3" font-family="Times,serif" font-size="14.00">user_id :uuid</text>
<text text-anchor="start" x="458" y="-70.3" font-family="Times,serif" font-size="14.00">cover :string</text>
<text text-anchor="start" x="458" y="-56.3" font-family="Times,serif" font-size="14.00">tags :text</text>
<text text-anchor="start" x="458" y="-42.3" font-family="Times,serif" font-size="14.00">created_at :datetime</text>
<text text-anchor="start" x="458" y="-28.3" font-family="Times,serif" font-size="14.00">updated_at :datetime</text>
</g>
<!-- CategoryOfPlaylistsChannel&#45;&gt;Playlist -->
<g id="edge4" class="edge"><title>CategoryOfPlaylistsChannel&#45;&gt;Playlist</title>
<path fill="none" stroke="#dff44f" d="M434.592,-260.919C449.682,-228.787 467.391,-191.079 482.475,-158.961"/>
<polygon fill="#dff44f" stroke="#dff44f" points="434.479,-261.161 426.154,-268.299 432.353,-265.686 430.228,-270.212 430.228,-270.212 430.228,-270.212 432.353,-265.686 434.301,-272.125 434.479,-261.161 434.479,-261.161"/>
<polygon fill="#dff44f" stroke="#dff44f" points="482.609,-158.675 490.934,-151.536 484.735,-154.149 486.86,-149.623 486.86,-149.623 486.86,-149.623 484.735,-154.149 482.787,-147.71 482.609,-158.675 482.609,-158.675"/>
</g>
<!-- Channel -->
<g id="node4" class="node"><title>Channel</title>
<path fill="none" stroke="black" d="M1417.6,-512.5C1417.6,-512.5 1555.41,-512.5 1555.41,-512.5 1561.41,-512.5 1567.41,-518.5 1567.41,-524.5 1567.41,-524.5 1567.41,-698.5 1567.41,-698.5 1567.41,-704.5 1561.41,-710.5 1555.41,-710.5 1555.41,-710.5 1417.6,-710.5 1417.6,-710.5 1411.6,-710.5 1405.6,-704.5 1405.6,-698.5 1405.6,-698.5 1405.6,-524.5 1405.6,-524.5 1405.6,-518.5 1411.6,-512.5 1417.6,-512.5"/>
<text text-anchor="middle" x="1486.51" y="-695.3" font-family="Times,serif" font-size="14.00">Channel</text>
<polyline fill="none" stroke="black" points="1405.6,-688.5 1567.41,-688.5 "/>
<text text-anchor="start" x="1413.6" y="-673.3" font-family="Times,serif" font-size="14.00">id :uuid</text>
<text text-anchor="start" x="1413.6" y="-659.3" font-family="Times,serif" font-size="14.00">title :string</text>
<text text-anchor="start" x="1413.6" y="-645.3" font-family="Times,serif" font-size="14.00">nb_views :integer</text>
<text text-anchor="start" x="1413.6" y="-631.3" font-family="Times,serif" font-size="14.00">nb_subscribers :integer</text>
<text text-anchor="start" x="1413.6" y="-617.3" font-family="Times,serif" font-size="14.00">profil :string</text>
<text text-anchor="start" x="1413.6" y="-603.3" font-family="Times,serif" font-size="14.00">cover :string</text>
<text text-anchor="start" x="1413.6" y="-589.3" font-family="Times,serif" font-size="14.00">presentation_text :text</text>
<text text-anchor="start" x="1413.6" y="-575.3" font-family="Times,serif" font-size="14.00">presentation_video :string</text>
<text text-anchor="start" x="1413.6" y="-561.3" font-family="Times,serif" font-size="14.00">user_id :uuid</text>
<text text-anchor="start" x="1413.6" y="-547.3" font-family="Times,serif" font-size="14.00">tags :text</text>
<text text-anchor="start" x="1413.6" y="-533.3" font-family="Times,serif" font-size="14.00">created_at :datetime</text>
<text text-anchor="start" x="1413.6" y="-519.3" font-family="Times,serif" font-size="14.00">updated_at :datetime</text>
</g>
<!-- Comment -->
<g id="node5" class="node"><title>Comment</title>
<path fill="none" stroke="black" d="M984.607,-14.5C984.607,-14.5 1122.4,-14.5 1122.4,-14.5 1128.4,-14.5 1134.4,-20.5 1134.4,-26.5 1134.4,-26.5 1134.4,-144.5 1134.4,-144.5 1134.4,-150.5 1128.4,-156.5 1122.4,-156.5 1122.4,-156.5 984.607,-156.5 984.607,-156.5 978.607,-156.5 972.607,-150.5 972.607,-144.5 972.607,-144.5 972.607,-26.5 972.607,-26.5 972.607,-20.5 978.607,-14.5 984.607,-14.5"/>
<text text-anchor="middle" x="1053.51" y="-141.3" font-family="Times,serif" font-size="14.00">Comment</text>
<polyline fill="none" stroke="black" points="972.607,-134.5 1134.4,-134.5 "/>
<text text-anchor="start" x="980.607" y="-119.3" font-family="Times,serif" font-size="14.00">id :uuid</text>
<text text-anchor="start" x="980.607" y="-105.3" font-family="Times,serif" font-size="14.00">initial_comment_id :uuid</text>
<text text-anchor="start" x="980.607" y="-91.3" font-family="Times,serif" font-size="14.00">user_id :uuid</text>
<text text-anchor="start" x="980.607" y="-77.3" font-family="Times,serif" font-size="14.00">content :text</text>
<text text-anchor="start" x="980.607" y="-63.3" font-family="Times,serif" font-size="14.00">commentable_id :integer</text>
<text text-anchor="start" x="980.607" y="-49.3" font-family="Times,serif" font-size="14.00">commentable_type :string</text>
<text text-anchor="start" x="980.607" y="-35.3" font-family="Times,serif" font-size="14.00">created_at :datetime</text>
<text text-anchor="start" x="980.607" y="-21.3" font-family="Times,serif" font-size="14.00">updated_at :datetime</text>
</g>
<!-- Channel&#45;&gt;Comment -->
<g id="edge6" class="edge"><title>Channel&#45;&gt;Comment</title>
<path fill="none" stroke="#3cc032" d="M1402.98,-505.946C1400.8,-503.268 1398.64,-500.615 1396.51,-498 1301.05,-381.11 1188.8,-247.075 1119.39,-164.592"/>
<ellipse fill="none" stroke="#3cc032" cx="1405.56" cy="-509.131" rx="4.00002" ry="4.00002"/>
<polygon fill="#3cc032" stroke="#3cc032" points="1119.25,-164.424 1116.25,-153.875 1116.03,-160.598 1112.81,-156.773 1112.81,-156.773 1112.81,-156.773 1116.03,-160.598 1109.37,-159.67 1119.25,-164.424 1119.25,-164.424"/>
</g>
<!-- Event -->
<g id="node7" class="node"><title>Event</title>
<path fill="none" stroke="black" d="M362.114,-498.5C362.114,-498.5 520.897,-498.5 520.897,-498.5 526.897,-498.5 532.897,-504.5 532.897,-510.5 532.897,-510.5 532.897,-712.5 532.897,-712.5 532.897,-718.5 526.897,-724.5 520.897,-724.5 520.897,-724.5 362.114,-724.5 362.114,-724.5 356.114,-724.5 350.114,-718.5 350.114,-712.5 350.114,-712.5 350.114,-510.5 350.114,-510.5 350.114,-504.5 356.114,-498.5 362.114,-498.5"/>
<text text-anchor="middle" x="441.505" y="-709.3" font-family="Times,serif" font-size="14.00">Event</text>
<polyline fill="none" stroke="black" points="350.114,-702.5 532.897,-702.5 "/>
<text text-anchor="start" x="358.114" y="-687.3" font-family="Times,serif" font-size="14.00">id :uuid</text>
<text text-anchor="start" x="358.114" y="-673.3" font-family="Times,serif" font-size="14.00">user_id :uuid</text>
<text text-anchor="start" x="358.114" y="-659.3" font-family="Times,serif" font-size="14.00">title :string</text>
<text text-anchor="start" x="358.114" y="-645.3" font-family="Times,serif" font-size="14.00">address :string</text>
<text text-anchor="start" x="358.114" y="-631.3" font-family="Times,serif" font-size="14.00">zip_code :string</text>
<text text-anchor="start" x="358.114" y="-617.3" font-family="Times,serif" font-size="14.00">city :string</text>
<text text-anchor="start" x="358.114" y="-603.3" font-family="Times,serif" font-size="14.00">states :string</text>
<text text-anchor="start" x="358.114" y="-589.3" font-family="Times,serif" font-size="14.00">country :string</text>
<text text-anchor="start" x="358.114" y="-575.3" font-family="Times,serif" font-size="14.00">beginning_datetime :datetime</text>
<text text-anchor="start" x="358.114" y="-561.3" font-family="Times,serif" font-size="14.00">finishing_datetime :datetime</text>
<text text-anchor="start" x="358.114" y="-547.3" font-family="Times,serif" font-size="14.00">is_live :boolean</text>
<text text-anchor="start" x="358.114" y="-533.3" font-family="Times,serif" font-size="14.00">description :text</text>
<text text-anchor="start" x="358.114" y="-519.3" font-family="Times,serif" font-size="14.00">created_at :datetime</text>
<text text-anchor="start" x="358.114" y="-505.3" font-family="Times,serif" font-size="14.00">updated_at :datetime</text>
</g>
<!-- Event&#45;&gt;Bin -->
<g id="edge10" class="edge"><title>Event&#45;&gt;Bin</title>
<path fill="none" stroke="#1879eb" d="M343.843,-517.889C302.46,-478.646 255.298,-433.924 218.032,-398.586"/>
<ellipse fill="none" stroke="#1879eb" cx="346.845" cy="-520.736" rx="4.00002" ry="4.00002"/>
<polygon fill="#1879eb" stroke="#1879eb" points="217.972,-398.529 213.812,-388.382 214.344,-395.088 210.716,-391.648 210.716,-391.648 210.716,-391.648 214.344,-395.088 207.619,-394.913 217.972,-398.529 217.972,-398.529"/>
</g>
<!-- Event&#45;&gt;Comment -->
<g id="edge11" class="edge"><title>Event&#45;&gt;Comment</title>
<path fill="none" stroke="#eca963" d="M511.572,-490.944C515.964,-481.311 520.014,-471.593 523.505,-462 563.006,-353.474 494.005,-290.774 573.505,-207 626.214,-151.458 838.211,-114.844 962.137,-97.726"/>
<ellipse fill="none" stroke="#eca963" cx="509.839" cy="-494.664" rx="4.00002" ry="4.00002"/>
<polygon fill="#eca963" stroke="#eca963" points="962.466,-97.6811 972.983,-100.787 967.42,-97.0048 972.374,-96.3285 972.374,-96.3285 972.374,-96.3285 967.42,-97.0048 971.766,-91.8698 962.466,-97.6811 962.466,-97.6811"/>
</g>
<!-- Media -->
<g id="node9" class="node"><title>Media</title>
<path fill="none" stroke="black" d="M594.731,-207.5C594.731,-207.5 740.28,-207.5 740.28,-207.5 746.28,-207.5 752.28,-213.5 752.28,-219.5 752.28,-219.5 752.28,-449.5 752.28,-449.5 752.28,-455.5 746.28,-461.5 740.28,-461.5 740.28,-461.5 594.731,-461.5 594.731,-461.5 588.731,-461.5 582.731,-455.5 582.731,-449.5 582.731,-449.5 582.731,-219.5 582.731,-219.5 582.731,-213.5 588.731,-207.5 594.731,-207.5"/>
<text text-anchor="middle" x="667.505" y="-446.3" font-family="Times,serif" font-size="14.00">Media</text>
<polyline fill="none" stroke="black" points="582.731,-439.5 752.28,-439.5 "/>
<text text-anchor="start" x="590.731" y="-424.3" font-family="Times,serif" font-size="14.00">id :uuid</text>
<text text-anchor="start" x="590.731" y="-410.3" font-family="Times,serif" font-size="14.00">system_profil_id :integer</text>
<text text-anchor="start" x="590.731" y="-396.3" font-family="Times,serif" font-size="14.00">media_category_id :integer</text>
<text text-anchor="start" x="590.731" y="-382.3" font-family="Times,serif" font-size="14.00">title :string</text>
<text text-anchor="start" x="590.731" y="-368.3" font-family="Times,serif" font-size="14.00">authors :string</text>
<text text-anchor="start" x="590.731" y="-354.3" font-family="Times,serif" font-size="14.00">file :string</text>
<text text-anchor="start" x="590.731" y="-340.3" font-family="Times,serif" font-size="14.00">duration :time</text>
<text text-anchor="start" x="590.731" y="-326.3" font-family="Times,serif" font-size="14.00">added_by :string</text>
<text text-anchor="start" x="590.731" y="-312.3" font-family="Times,serif" font-size="14.00">status :string</text>
<text text-anchor="start" x="590.731" y="-298.3" font-family="Times,serif" font-size="14.00">img :string</text>
<text text-anchor="start" x="590.731" y="-284.3" font-family="Times,serif" font-size="14.00">is_live :string</text>
<text text-anchor="start" x="590.731" y="-270.3" font-family="Times,serif" font-size="14.00">is_available :boolean</text>
<text text-anchor="start" x="590.731" y="-256.3" font-family="Times,serif" font-size="14.00">nb_views :integer</text>
<text text-anchor="start" x="590.731" y="-242.3" font-family="Times,serif" font-size="14.00">tags :text</text>
<text text-anchor="start" x="590.731" y="-228.3" font-family="Times,serif" font-size="14.00">created_at :datetime</text>
<text text-anchor="start" x="590.731" y="-214.3" font-family="Times,serif" font-size="14.00">updated_at :datetime</text>
</g>
<!-- Event&#45;&gt;Media -->
<g id="edge13" class="edge"><title>Event&#45;&gt;Media</title>
<path fill="none" stroke="#14d355" d="M539.45,-496.994C549.335,-485.235 559.165,-473.414 568.505,-462 571.017,-458.931 573.554,-455.813 576.107,-452.66"/>
<polygon fill="#14d355" stroke="#14d355" points="539.394,-497.061 529.509,-501.809 536.172,-500.885 532.95,-504.708 532.95,-504.708 532.95,-504.708 536.172,-500.885 536.392,-507.608 539.394,-497.061 539.394,-497.061"/>
<polygon fill="#14d355" stroke="#14d355" points="576.201,-452.544 585.983,-447.587 579.341,-448.653 582.481,-444.762 582.481,-444.762 582.481,-444.762 579.341,-448.653 578.979,-441.936 576.201,-452.544 576.201,-452.544"/>
</g>
<!-- Event&#45;&gt;Playlist -->
<g id="edge12" class="edge"><title>Event&#45;&gt;Playlist</title>
<path fill="none" stroke="#8eadb3" d="M490.804,-488.766C493.386,-479.799 495.667,-470.815 497.505,-462 519.013,-358.86 520.953,-236.507 519.45,-160.17"/>
<polygon fill="#8eadb3" stroke="#8eadb3" points="490.764,-488.901 483.581,-497.188 489.328,-493.69 487.892,-498.48 487.892,-498.48 487.892,-498.48 489.328,-493.69 492.202,-499.772 490.764,-488.901 490.764,-488.901"/>
<polygon fill="#8eadb3" stroke="#8eadb3" points="519.439,-159.708 523.715,-149.61 519.328,-154.709 519.216,-149.71 519.216,-149.71 519.216,-149.71 519.328,-154.709 514.717,-149.811 519.439,-159.708 519.439,-159.708"/>
</g>
<!-- Media&#45;&gt;Comment -->
<g id="edge16" class="edge"><title>Media&#45;&gt;Comment</title>
<path fill="none" stroke="#e37c82" d="M759.689,-274.512C821.566,-234.917 902.665,-183.022 963.981,-143.786"/>
<ellipse fill="none" stroke="#e37c82" cx="756.062" cy="-276.833" rx="4.00002" ry="4.00002"/>
<polygon fill="#e37c82" stroke="#e37c82" points="964.075,-143.726 974.923,-142.127 968.286,-141.031 972.498,-138.336 972.498,-138.336 972.498,-138.336 968.286,-141.031 970.073,-134.546 964.075,-143.726 964.075,-143.726"/>
</g>
<!-- MediaTreatment -->
<g id="node11" class="node"><title>MediaTreatment</title>
<path fill="none" stroke="black" d="M1371,-14.5C1371,-14.5 1480.01,-14.5 1480.01,-14.5 1486.01,-14.5 1492.01,-20.5 1492.01,-26.5 1492.01,-26.5 1492.01,-144.5 1492.01,-144.5 1492.01,-150.5 1486.01,-156.5 1480.01,-156.5 1480.01,-156.5 1371,-156.5 1371,-156.5 1365,-156.5 1359,-150.5 1359,-144.5 1359,-144.5 1359,-26.5 1359,-26.5 1359,-20.5 1365,-14.5 1371,-14.5"/>
<text text-anchor="middle" x="1425.51" y="-141.3" font-family="Times,serif" font-size="14.00">MediaTreatment</text>
<polyline fill="none" stroke="black" points="1359,-134.5 1492.01,-134.5 "/>
<text text-anchor="start" x="1367" y="-119.3" font-family="Times,serif" font-size="14.00">id :integer</text>
<text text-anchor="start" x="1367" y="-105.3" font-family="Times,serif" font-size="14.00">media_id :uuid</text>
<text text-anchor="start" x="1367" y="-91.3" font-family="Times,serif" font-size="14.00">subtitle :string</text>
<text text-anchor="start" x="1367" y="-77.3" font-family="Times,serif" font-size="14.00">name :string</text>
<text text-anchor="start" x="1367" y="-63.3" font-family="Times,serif" font-size="14.00">error :string</text>
<text text-anchor="start" x="1367" y="-49.3" font-family="Times,serif" font-size="14.00">progression :float</text>
<text text-anchor="start" x="1367" y="-35.3" font-family="Times,serif" font-size="14.00">created_at :datetime</text>
<text text-anchor="start" x="1367" y="-21.3" font-family="Times,serif" font-size="14.00">updated_at :datetime</text>
</g>
<!-- Media&#45;&gt;MediaTreatment -->
<g id="edge17" class="edge"><title>Media&#45;&gt;MediaTreatment</title>
<path fill="none" stroke="#9073c7" d="M760.336,-303.251C912.469,-253.677 1211.84,-156.124 1351.05,-110.761"/>
<ellipse fill="none" stroke="#9073c7" cx="756.421" cy="-304.526" rx="4.00001" ry="4.00001"/>
<ellipse fill="#9073c7" stroke="#9073c7" cx="1354.97" cy="-109.484" rx="4.00001" ry="4.00001"/>
</g>
<!-- Media&#45;&gt;Playlist -->
<g id="edge18" class="edge"><title>Media&#45;&gt;Playlist</title>
<path fill="none" stroke="#3bf7bb" d="M584.993,-198.53C576.522,-184.673 568.17,-171.012 560.369,-158.25"/>
<polygon fill="#3bf7bb" stroke="#3bf7bb" points="585.241,-198.935 586.618,-209.815 587.849,-203.201 590.457,-207.467 590.457,-207.467 590.457,-207.467 587.849,-203.201 594.297,-205.12 585.241,-198.935 585.241,-198.935"/>
<polygon fill="#3bf7bb" stroke="#3bf7bb" points="560.276,-158.099 558.9,-147.22 557.668,-153.833 555.061,-149.567 555.061,-149.567 555.061,-149.567 557.668,-153.833 551.221,-151.914 560.276,-158.099 560.276,-158.099"/>
</g>
<!-- MediaCategory -->
<g id="node10" class="node"><title>MediaCategory</title>
<path fill="none" stroke="black" d="M401,-852.5C401,-852.5 510.011,-852.5 510.011,-852.5 516.011,-852.5 522.011,-858.5 522.011,-864.5 522.011,-864.5 522.011,-968.5 522.011,-968.5 522.011,-974.5 516.011,-980.5 510.011,-980.5 510.011,-980.5 401,-980.5 401,-980.5 395,-980.5 389,-974.5 389,-968.5 389,-968.5 389,-864.5 389,-864.5 389,-858.5 395,-852.5 401,-852.5"/>
<text text-anchor="middle" x="455.505" y="-965.3" font-family="Times,serif" font-size="14.00">MediaCategory</text>
<polyline fill="none" stroke="black" points="389,-958.5 522.011,-958.5 "/>
<text text-anchor="start" x="397" y="-943.3" font-family="Times,serif" font-size="14.00">id :integer</text>
<text text-anchor="start" x="397" y="-929.3" font-family="Times,serif" font-size="14.00">name :string</text>
<text text-anchor="start" x="397" y="-915.3" font-family="Times,serif" font-size="14.00">genre :string</text>
<text text-anchor="start" x="397" y="-901.3" font-family="Times,serif" font-size="14.00">type :string</text>
<text text-anchor="start" x="397" y="-887.3" font-family="Times,serif" font-size="14.00">description :text</text>
<text text-anchor="start" x="397" y="-873.3" font-family="Times,serif" font-size="14.00">created_at :datetime</text>
<text text-anchor="start" x="397" y="-859.3" font-family="Times,serif" font-size="14.00">updated_at :datetime</text>
</g>
<!-- MediaCategory&#45;&gt;Media -->
<g id="edge20" class="edge"><title>MediaCategory&#45;&gt;Media</title>
<path fill="none" stroke="#eb1840" d="M490.802,-844.794C507.599,-809.395 527.107,-765.543 541.505,-725 576.427,-626.663 568.471,-596.987 601.505,-498 604.439,-489.211 607.607,-480.215 610.913,-471.186"/>
<ellipse fill="none" stroke="#eb1840" cx="488.984" cy="-848.605" rx="4.00002" ry="4.00002"/>
<polygon fill="#eb1840" stroke="#eb1840" points="610.927,-471.148 618.624,-463.337 612.666,-466.46 614.405,-461.772 614.405,-461.772 614.405,-461.772 612.666,-466.46 610.185,-460.207 610.927,-471.148 610.927,-471.148"/>
</g>
<!-- SystemProfil -->
<g id="node13" class="node"><title>SystemProfil</title>
<path fill="none" stroke="black" d="M552,-859.5C552,-859.5 661.011,-859.5 661.011,-859.5 667.011,-859.5 673.011,-865.5 673.011,-871.5 673.011,-871.5 673.011,-961.5 673.011,-961.5 673.011,-967.5 667.011,-973.5 661.011,-973.5 661.011,-973.5 552,-973.5 552,-973.5 546,-973.5 540,-967.5 540,-961.5 540,-961.5 540,-871.5 540,-871.5 540,-865.5 546,-859.5 552,-859.5"/>
<text text-anchor="middle" x="606.505" y="-958.3" font-family="Times,serif" font-size="14.00">SystemProfil</text>
<polyline fill="none" stroke="black" points="540,-951.5 673.011,-951.5 "/>
<text text-anchor="start" x="548" y="-936.3" font-family="Times,serif" font-size="14.00">id :integer</text>
<text text-anchor="start" x="548" y="-922.3" font-family="Times,serif" font-size="14.00">title :string</text>
<text text-anchor="start" x="548" y="-908.3" font-family="Times,serif" font-size="14.00">parameters :string</text>
<text text-anchor="start" x="548" y="-894.3" font-family="Times,serif" font-size="14.00">description :text</text>
<text text-anchor="start" x="548" y="-880.3" font-family="Times,serif" font-size="14.00">created_at :datetime</text>
<text text-anchor="start" x="548" y="-866.3" font-family="Times,serif" font-size="14.00">updated_at :datetime</text>
</g>
<!-- SystemProfil&#45;&gt;Media -->
<g id="edge24" class="edge"><title>SystemProfil&#45;&gt;Media</title>
<path fill="none" stroke="#267b57" d="M604.381,-851.386C602.699,-769.051 603.229,-621.99 622.505,-498 623.845,-489.383 625.482,-480.571 627.329,-471.727"/>
<ellipse fill="none" stroke="#267b57" cx="604.468" cy="-855.393" rx="4" ry="4"/>
<polygon fill="#267b57" stroke="#267b57" points="627.377,-471.508 633.897,-462.691 628.438,-466.622 629.5,-461.735 629.5,-461.735 629.5,-461.735 628.438,-466.622 625.102,-460.78 627.377,-471.508 627.377,-471.508"/>
</g>
<!-- User -->
<g id="node14" class="node"><title>User</title>
<path fill="none" stroke="black" d="M931.048,-761.5C931.048,-761.5 1057.96,-761.5 1057.96,-761.5 1063.96,-761.5 1069.96,-767.5 1069.96,-773.5 1069.96,-773.5 1069.96,-1059.5 1069.96,-1059.5 1069.96,-1065.5 1063.96,-1071.5 1057.96,-1071.5 1057.96,-1071.5 931.048,-1071.5 931.048,-1071.5 925.048,-1071.5 919.048,-1065.5 919.048,-1059.5 919.048,-1059.5 919.048,-773.5 919.048,-773.5 919.048,-767.5 925.048,-761.5 931.048,-761.5"/>
<text text-anchor="middle" x="994.505" y="-1056.3" font-family="Times,serif" font-size="14.00">User</text>
<polyline fill="none" stroke="black" points="919.048,-1049.5 1069.96,-1049.5 "/>
<text text-anchor="start" x="927.048" y="-1034.3" font-family="Times,serif" font-size="14.00">id :uuid</text>
<text text-anchor="start" x="927.048" y="-1020.3" font-family="Times,serif" font-size="14.00">email :string</text>
<text text-anchor="start" x="927.048" y="-1006.3" font-family="Times,serif" font-size="14.00">firstname :string</text>
<text text-anchor="start" x="927.048" y="-992.3" font-family="Times,serif" font-size="14.00">lastname :string</text>
<text text-anchor="start" x="927.048" y="-978.3" font-family="Times,serif" font-size="14.00">channel_name :string</text>
<text text-anchor="start" x="927.048" y="-964.3" font-family="Times,serif" font-size="14.00">pseudo :string</text>
<text text-anchor="start" x="927.048" y="-950.3" font-family="Times,serif" font-size="14.00">phone :string</text>
<text text-anchor="start" x="927.048" y="-936.3" font-family="Times,serif" font-size="14.00">address :string</text>
<text text-anchor="start" x="927.048" y="-922.3" font-family="Times,serif" font-size="14.00">zip_code :string</text>
<text text-anchor="start" x="927.048" y="-908.3" font-family="Times,serif" font-size="14.00">city :string</text>
<text text-anchor="start" x="927.048" y="-894.3" font-family="Times,serif" font-size="14.00">states :string</text>
<text text-anchor="start" x="927.048" y="-880.3" font-family="Times,serif" font-size="14.00">country :string</text>
<text text-anchor="start" x="927.048" y="-866.3" font-family="Times,serif" font-size="14.00">isAdmin :string</text>
<text text-anchor="start" x="927.048" y="-852.3" font-family="Times,serif" font-size="14.00">profil :string</text>
<text text-anchor="start" x="927.048" y="-838.3" font-family="Times,serif" font-size="14.00">cover :string</text>
<text text-anchor="start" x="927.048" y="-824.3" font-family="Times,serif" font-size="14.00">last_connexion :string</text>
<text text-anchor="start" x="927.048" y="-810.3" font-family="Times,serif" font-size="14.00">last_device_used :string</text>
<text text-anchor="start" x="927.048" y="-796.3" font-family="Times,serif" font-size="14.00">tags :text</text>
<text text-anchor="start" x="927.048" y="-782.3" font-family="Times,serif" font-size="14.00">created_at :datetime</text>
<text text-anchor="start" x="927.048" y="-768.3" font-family="Times,serif" font-size="14.00">updated_at :datetime</text>
</g>
<!-- User&#45;&gt;Channel -->
<g id="edge26" class="edge"><title>User&#45;&gt;Channel</title>
<path fill="none" stroke="#992710" d="M1077.83,-888.63C1163.69,-858.199 1298.46,-802.561 1396.51,-725 1400,-722.236 1403.44,-719.312 1406.83,-716.263"/>
<ellipse fill="none" stroke="#992710" cx="1073.96" cy="-889.99" rx="4.00001" ry="4.00001"/>
<ellipse fill="#992710" stroke="#992710" cx="1409.92" cy="-713.377" rx="4.00002" ry="4.00002"/>
</g>
<!-- User&#45;&gt;Comment -->
<g id="edge31" class="edge"><title>User&#45;&gt;Comment</title>
<path fill="none" stroke="#a9f6be" d="M1025.93,-753.334C1027.27,-743.768 1028.48,-734.27 1029.51,-725 1051.5,-525.183 1054.38,-288.309 1054.19,-166.969"/>
<ellipse fill="none" stroke="#a9f6be" cx="1025.34" cy="-757.424" rx="4.00001" ry="4.00001"/>
<polygon fill="#a9f6be" stroke="#a9f6be" points="1054.19,-166.658 1058.66,-156.647 1054.18,-161.658 1054.16,-156.658 1054.16,-156.658 1054.16,-156.658 1054.18,-161.658 1049.66,-156.669 1054.19,-166.658 1054.19,-166.658"/>
</g>
<!-- User&#45;&gt;Event -->
<g id="edge27" class="edge"><title>User&#45;&gt;Event</title>
<path fill="none" stroke="#0a61cc" d="M911.587,-870.067C812.859,-815.972 648.046,-725.668 542.119,-667.628"/>
<ellipse fill="none" stroke="#0a61cc" cx="915.265" cy="-872.082" rx="4.00002" ry="4.00002"/>
<polygon fill="#0a61cc" stroke="#0a61cc" points="542.097,-667.616 535.49,-658.865 537.712,-665.214 533.328,-662.811 533.328,-662.811 533.328,-662.811 537.712,-665.214 531.165,-666.758 542.097,-667.616 542.097,-667.616"/>
</g>
<!-- User&#45;&gt;Media -->
<g id="edge32" class="edge"><title>User&#45;&gt;Media</title>
<path fill="none" stroke="#43948b" d="M995.877,-752.997C993.801,-654.249 985.296,-539.453 958.505,-498 913.751,-428.752 828.662,-386.247 762.005,-362.169"/>
<ellipse fill="none" stroke="#43948b" cx="995.96" cy="-757.286" rx="4" ry="4"/>
<polygon fill="#43948b" stroke="#43948b" points="761.742,-362.076 753.808,-354.505 757.026,-360.412 752.311,-358.749 752.311,-358.749 752.311,-358.749 757.026,-360.412 750.814,-362.993 761.742,-362.076 761.742,-362.076"/>
</g>
<!-- User&#45;&gt;Playlist -->
<g id="edge29" class="edge"><title>User&#45;&gt;Playlist</title>
<path fill="none" stroke="#c91a35" d="M1016.98,-753.062C1021.96,-674.004 1018.93,-578.82 990.505,-498 935.907,-342.743 889.416,-310.56 761.505,-207 710.783,-165.934 643.754,-134.186 592.63,-113.611"/>
<ellipse fill="none" stroke="#c91a35" cx="1016.71" cy="-757.158" rx="4" ry="4"/>
<polygon fill="#c91a35" stroke="#c91a35" points="592.571,-113.588 584.936,-105.717 587.924,-111.744 583.276,-109.9 583.276,-109.9 583.276,-109.9 587.924,-111.744 581.617,-114.082 592.571,-113.588 592.571,-113.588"/>
</g>
<!-- UserAbout -->
<g id="node15" class="node"><title>UserAbout</title>
<path fill="none" stroke="black" d="M677,-561.5C677,-561.5 786.011,-561.5 786.011,-561.5 792.011,-561.5 798.011,-567.5 798.011,-573.5 798.011,-573.5 798.011,-649.5 798.011,-649.5 798.011,-655.5 792.011,-661.5 786.011,-661.5 786.011,-661.5 677,-661.5 677,-661.5 671,-661.5 665,-655.5 665,-649.5 665,-649.5 665,-573.5 665,-573.5 665,-567.5 671,-561.5 677,-561.5"/>
<text text-anchor="middle" x="731.505" y="-646.3" font-family="Times,serif" font-size="14.00">UserAbout</text>
<polyline fill="none" stroke="black" points="665,-639.5 798.011,-639.5 "/>
<text text-anchor="start" x="673" y="-624.3" font-family="Times,serif" font-size="14.00">id :integer</text>
<text text-anchor="start" x="673" y="-610.3" font-family="Times,serif" font-size="14.00">user_id :uuid</text>
<text text-anchor="start" x="673" y="-596.3" font-family="Times,serif" font-size="14.00">description :text</text>
<text text-anchor="start" x="673" y="-582.3" font-family="Times,serif" font-size="14.00">created_at :datetime</text>
<text text-anchor="start" x="673" y="-568.3" font-family="Times,serif" font-size="14.00">updated_at :datetime</text>
</g>
<!-- User&#45;&gt;UserAbout -->
<g id="edge30" class="edge"><title>User&#45;&gt;UserAbout</title>
<path fill="none" stroke="#5e9629" d="M912.862,-839.515C878.458,-805.826 838.956,-764.851 806.505,-725 792.116,-707.33 777.855,-686.883 765.694,-668.307"/>
<ellipse fill="none" stroke="#5e9629" cx="915.916" cy="-842.494" rx="4.00002" ry="4.00002"/>
<ellipse fill="#5e9629" stroke="#5e9629" cx="763.49" cy="-664.912" rx="4.00002" ry="4.00002"/>
</g>
<!-- UserOnHoldVideo -->
<g id="node16" class="node"><title>UserOnHoldVideo</title>
<path fill="none" stroke="black" d="M828,-554.5C828,-554.5 937.011,-554.5 937.011,-554.5 943.011,-554.5 949.011,-560.5 949.011,-566.5 949.011,-566.5 949.011,-656.5 949.011,-656.5 949.011,-662.5 943.011,-668.5 937.011,-668.5 937.011,-668.5 828,-668.5 828,-668.5 822,-668.5 816,-662.5 816,-656.5 816,-656.5 816,-566.5 816,-566.5 816,-560.5 822,-554.5 828,-554.5"/>
<text text-anchor="middle" x="882.505" y="-653.3" font-family="Times,serif" font-size="14.00">UserOnHoldVideo</text>
<polyline fill="none" stroke="black" points="816,-646.5 949.011,-646.5 "/>
<text text-anchor="start" x="824" y="-631.3" font-family="Times,serif" font-size="14.00">id :integer</text>
<text text-anchor="start" x="824" y="-617.3" font-family="Times,serif" font-size="14.00">user_id :uuid</text>
<text text-anchor="start" x="824" y="-603.3" font-family="Times,serif" font-size="14.00">media_id :uuid</text>
<text text-anchor="start" x="824" y="-589.3" font-family="Times,serif" font-size="14.00">seen :boolean</text>
<text text-anchor="start" x="824" y="-575.3" font-family="Times,serif" font-size="14.00">created_at :datetime</text>
<text text-anchor="start" x="824" y="-561.3" font-family="Times,serif" font-size="14.00">updated_at :datetime</text>
</g>
<!-- User&#45;&gt;UserOnHoldVideo -->
<g id="edge33" class="edge"><title>User&#45;&gt;UserOnHoldVideo</title>
<path fill="none" stroke="#60ab92" d="M934.648,-753.565C924.773,-726.849 915.058,-700.567 906.74,-678.064"/>
<ellipse fill="none" stroke="#60ab92" cx="936.134" cy="-757.585" rx="4.00001" ry="4.00001"/>
<polygon fill="#60ab92" stroke="#60ab92" points="906.732,-678.041 907.486,-667.101 904.998,-673.351 903.265,-668.662 903.265,-668.662 903.265,-668.662 904.998,-673.351 899.044,-670.222 906.732,-678.041 906.732,-678.041"/>
</g>
<!-- UserSubscription -->
<g id="node17" class="node"><title>UserSubscription</title>
<path fill="none" stroke="black" d="M1094,-561.5C1094,-561.5 1203.01,-561.5 1203.01,-561.5 1209.01,-561.5 1215.01,-567.5 1215.01,-573.5 1215.01,-573.5 1215.01,-649.5 1215.01,-649.5 1215.01,-655.5 1209.01,-661.5 1203.01,-661.5 1203.01,-661.5 1094,-661.5 1094,-661.5 1088,-661.5 1082,-655.5 1082,-649.5 1082,-649.5 1082,-573.5 1082,-573.5 1082,-567.5 1088,-561.5 1094,-561.5"/>
<text text-anchor="middle" x="1148.51" y="-646.3" font-family="Times,serif" font-size="14.00">UserSubscription</text>
<polyline fill="none" stroke="black" points="1082,-639.5 1215.01,-639.5 "/>
<text text-anchor="start" x="1090" y="-624.3" font-family="Times,serif" font-size="14.00">id :integer</text>
<text text-anchor="start" x="1090" y="-610.3" font-family="Times,serif" font-size="14.00">channel_id :uuid</text>
<text text-anchor="start" x="1090" y="-596.3" font-family="Times,serif" font-size="14.00">user_id :uuid</text>
<text text-anchor="start" x="1090" y="-582.3" font-family="Times,serif" font-size="14.00">created_at :datetime</text>
<text text-anchor="start" x="1090" y="-568.3" font-family="Times,serif" font-size="14.00">updated_at :datetime</text>
</g>
<!-- User&#45;&gt;UserSubscription -->
<g id="edge28" class="edge"><title>User&#45;&gt;UserSubscription</title>
<path fill="none" stroke="#1f0694" d="M1074,-759.09C1090.06,-727.492 1105.98,-696.179 1118.95,-670.657"/>
<ellipse fill="none" stroke="#1f0694" cx="1071.96" cy="-763.097" rx="4.00002" ry="4.00002"/>
<polygon fill="#1f0694" stroke="#1f0694" points="1119.06,-670.442 1127.6,-663.566 1121.32,-665.984 1123.59,-661.527 1123.59,-661.527 1123.59,-661.527 1121.32,-665.984 1119.58,-659.488 1119.06,-670.442 1119.06,-670.442"/>
</g>
<!-- UserVideoView -->
<g id="node18" class="node"><title>UserVideoView</title>
<path fill="none" stroke="black" d="M1245.11,-533.5C1245.11,-533.5 1375.9,-533.5 1375.9,-533.5 1381.9,-533.5 1387.9,-539.5 1387.9,-545.5 1387.9,-545.5 1387.9,-677.5 1387.9,-677.5 1387.9,-683.5 1381.9,-689.5 1375.9,-689.5 1375.9,-689.5 1245.11,-689.5 1245.11,-689.5 1239.11,-689.5 1233.11,-683.5 1233.11,-677.5 1233.11,-677.5 1233.11,-545.5 1233.11,-545.5 1233.11,-539.5 1239.11,-533.5 1245.11,-533.5"/>
<text text-anchor="middle" x="1310.51" y="-674.3" font-family="Times,serif" font-size="14.00">UserVideoView</text>
<polyline fill="none" stroke="black" points="1233.11,-667.5 1387.9,-667.5 "/>
<text text-anchor="start" x="1241.11" y="-652.3" font-family="Times,serif" font-size="14.00">id :integer</text>
<text text-anchor="start" x="1241.11" y="-638.3" font-family="Times,serif" font-size="14.00">user_id :uuid</text>
<text text-anchor="start" x="1241.11" y="-624.3" font-family="Times,serif" font-size="14.00">media_id :uuid</text>
<text text-anchor="start" x="1241.11" y="-610.3" font-family="Times,serif" font-size="14.00">last_time_seen :datetime</text>
<text text-anchor="start" x="1241.11" y="-596.3" font-family="Times,serif" font-size="14.00">category :string</text>
<text text-anchor="start" x="1241.11" y="-582.3" font-family="Times,serif" font-size="14.00">genre :string</text>
<text text-anchor="start" x="1241.11" y="-568.3" font-family="Times,serif" font-size="14.00">type :string</text>
<text text-anchor="start" x="1241.11" y="-554.3" font-family="Times,serif" font-size="14.00">created_at :datetime</text>
<text text-anchor="start" x="1241.11" y="-540.3" font-family="Times,serif" font-size="14.00">updated_at :datetime</text>
</g>
<!-- User&#45;&gt;UserVideoView -->
<g id="edge34" class="edge"><title>User&#45;&gt;UserVideoView</title>
<path fill="none" stroke="#7e51e0" d="M1076.57,-854.908C1122.31,-819.38 1179.02,-772.293 1224.51,-725 1232.69,-716.486 1240.84,-707.205 1248.66,-697.745"/>
<ellipse fill="none" stroke="#7e51e0" cx="1073.36" cy="-857.395" rx="4.00002" ry="4.00002"/>
<polygon fill="#7e51e0" stroke="#7e51e0" points="1248.84,-697.524 1258.65,-692.611 1252,-693.647 1255.16,-689.77 1255.16,-689.77 1255.16,-689.77 1252,-693.647 1251.67,-686.928 1248.84,-697.524 1248.84,-697.524"/>
</g>
<!-- ActiveRecord::Base -->
<g id="node19" class="node"><title>ActiveRecord::Base</title>
<ellipse fill="none" stroke="black" cx="701.505" cy="-1144.5" rx="81.1422" ry="18"/>
<text text-anchor="middle" x="701.505" y="-1140.3" font-family="Times,serif" font-size="14.00">ActiveRecord::Base</text>
</g>
<!-- ActiveRecord::Base&#45;&gt;Bin -->
<g id="edge3" class="edge"><title>ActiveRecord::Base&#45;&gt;Bin</title>
<path fill="none" stroke="black" d="M668.467,-1127.88C651.757,-1120.66 630.943,-1112.66 611.505,-1108 529.233,-1088.28 292.77,-1131.38 232.505,-1072 45.5775,-887.825 105.13,-529.494 137.036,-391.521"/>
</g>
<!-- ActiveRecord::Base&#45;&gt;CategoryOfPlaylistsChannel -->
<g id="edge5" class="edge"><title>ActiveRecord::Base&#45;&gt;CategoryOfPlaylistsChannel</title>
<path fill="none" stroke="black" d="M667.954,-1128.06C651.294,-1120.97 630.675,-1113.04 611.505,-1108 555.304,-1093.23 391.351,-1115.22 352.505,-1072 267.219,-977.118 319.401,-623.649 341.505,-498 347.46,-464.154 359.89,-428.077 371.813,-398.535"/>
</g>
<!-- ActiveRecord::Base&#45;&gt;Channel -->
<g id="edge7" class="edge"><title>ActiveRecord::Base&#45;&gt;Channel</title>
<path fill="none" stroke="black" d="M781.556,-1141.2C910.391,-1136.11 1156.49,-1120.2 1227.51,-1072 1353.47,-986.501 1425.06,-818.262 1459.77,-710.806"/>
</g>
<!-- ActiveRecord::Base&#45;&gt;Comment -->
<g id="edge8" class="edge"><title>ActiveRecord::Base&#45;&gt;Comment</title>
<path fill="none" stroke="black" d="M782.606,-1142.93C934.226,-1140.51 1253.7,-1128.64 1346.51,-1072 1504.44,-975.617 1523.12,-902.156 1576.51,-725 1605.61,-628.401 1616.05,-590.815 1576.51,-498 1503.31,-326.229 1424.03,-317.476 1273.51,-207 1230.15,-175.178 1177.42,-146.015 1134.46,-124.352"/>
</g>
<!-- ActiveRecord::Base&#45;&gt;Document -->
<g id="edge9" class="edge"><title>ActiveRecord::Base&#45;&gt;Document</title>
<path fill="none" stroke="black" d="M668.935,-1127.86C652.165,-1120.54 631.161,-1112.46 611.505,-1108 556.214,-1095.45 142.064,-1112.62 102.505,-1072 -20.4588,-945.749 31.0699,-385.201 55.9628,-170.53"/>
</g>
<!-- ActiveRecord::Base&#45;&gt;Event -->
<g id="edge14" class="edge"><title>ActiveRecord::Base&#45;&gt;Event</title>
<path fill="none" stroke="black" d="M667.494,-1128.02C650.901,-1121 630.472,-1113.14 611.505,-1108 561.152,-1094.34 413.451,-1111.62 379.505,-1072 334.539,-1019.52 365.927,-828.764 379.505,-761 381.92,-748.947 385.337,-736.65 389.339,-724.55"/>
</g>
<!-- ActiveRecord::Base&#45;&gt;Label -->
<g id="edge15" class="edge"><title>ActiveRecord::Base&#45;&gt;Label</title>
<path fill="none" stroke="black" d="M668.446,-1127.97C651.73,-1120.77 630.918,-1112.76 611.505,-1108 537.499,-1089.85 322.448,-1127.75 270.505,-1072 240.018,-1039.28 236.649,-403.13 236.44,-170.648"/>
</g>
<!-- ActiveRecord::Base&#45;&gt;Media -->
<g id="edge19" class="edge"><title>ActiveRecord::Base&#45;&gt;Media</title>
<path fill="none" stroke="black" d="M704.095,-1126.41C711.73,-1071.37 730.722,-894.512 682.505,-761 675.712,-742.189 661.83,-743.974 655.505,-725 623.602,-629.288 651.788,-598.82 655.505,-498 655.938,-486.268 656.546,-474.07 657.26,-461.864"/>
</g>
<!-- ActiveRecord::Base&#45;&gt;MediaCategory -->
<g id="edge21" class="edge"><title>ActiveRecord::Base&#45;&gt;MediaCategory</title>
<path fill="none" stroke="black" d="M663.767,-1128.51C614.993,-1109.02 535.664,-1076.88 530.505,-1072 504.4,-1047.31 486.253,-1011.64 474.357,-980.784"/>
</g>
<!-- ActiveRecord::Base&#45;&gt;MediaTreatment -->
<g id="edge22" class="edge"><title>ActiveRecord::Base&#45;&gt;MediaTreatment</title>
<path fill="none" stroke="black" d="M781.378,-1140.79C966.94,-1133.83 1415.52,-1112.94 1469.51,-1072 1678.16,-913.769 1655.33,-754.487 1602.51,-498 1576.5,-371.747 1509.97,-236.478 1466.29,-156.795"/>
</g>
<!-- ActiveRecord::Base&#45;&gt;Playlist -->
<g id="edge23" class="edge"><title>ActiveRecord::Base&#45;&gt;Playlist</title>
<path fill="none" stroke="black" d="M668.002,-1127.88C651.354,-1120.74 630.73,-1112.82 611.505,-1108 544.236,-1091.13 347.629,-1123.79 301.505,-1072 271.18,-1037.95 251.067,-296.541 303.505,-207 334.906,-153.381 399.946,-121.698 449.942,-104.388"/>
</g>
<!-- ActiveRecord::Base&#45;&gt;SystemProfil -->
<g id="edge25" class="edge"><title>ActiveRecord::Base&#45;&gt;SystemProfil</title>
<path fill="none" stroke="black" d="M694.365,-1126.51C680.902,-1094.49 651.221,-1023.88 630.088,-973.601"/>
</g>
<!-- ActiveRecord::Base&#45;&gt;User -->
<g id="edge35" class="edge"><title>ActiveRecord::Base&#45;&gt;User</title>
<path fill="none" stroke="black" d="M744.82,-1129.21C777.669,-1117.1 822.912,-1097.63 857.505,-1072 879.399,-1055.78 900.367,-1035.58 919.03,-1015.18"/>
</g>
<!-- ActiveRecord::Base&#45;&gt;UserAbout -->
<g id="edge36" class="edge"><title>ActiveRecord::Base&#45;&gt;UserAbout</title>
<path fill="none" stroke="black" d="M705.674,-1126.28C708.969,-1111.87 713.36,-1090.72 715.505,-1072 732.543,-923.305 733.206,-745.93 732.341,-661.653"/>
</g>
<!-- ActiveRecord::Base&#45;&gt;UserOnHoldVideo -->
<g id="edge37" class="edge"><title>ActiveRecord::Base&#45;&gt;UserOnHoldVideo</title>
<path fill="none" stroke="black" d="M711.338,-1126.56C719.343,-1112.32 730.576,-1091.26 738.505,-1072 796.756,-930.536 845.311,-756.516 868.265,-668.773"/>
</g>
<!-- ActiveRecord::Base&#45;&gt;UserSubscription -->
<g id="edge38" class="edge"><title>ActiveRecord::Base&#45;&gt;UserSubscription</title>
<path fill="none" stroke="black" d="M779.538,-1139.1C877.648,-1131.86 1038.16,-1113.84 1078.51,-1072 1186.76,-959.752 1171.46,-755.127 1157.46,-661.557"/>
</g>
<!-- ActiveRecord::Base&#45;&gt;UserVideoView -->
<g id="edge39" class="edge"><title>ActiveRecord::Base&#45;&gt;UserVideoView</title>
<path fill="none" stroke="black" d="M780.123,-1139.84C890.335,-1133.2 1083.27,-1115.56 1136.51,-1072 1253.18,-976.51 1291.69,-793.838 1304.35,-689.889"/>
</g>
</g>
</svg>
