<?xml version="1.0" encoding="UTF-8" standalone="no"?>
<!DOCTYPE svg PUBLIC "-//W3C//DTD SVG 1.1//EN"
 "http://www.w3.org/Graphics/SVG/1.1/DTD/svg11.dtd">
<!-- Generated by graphviz version 2.38.0 (20140413.2041)
 -->
<!-- Title: models_diagram Pages: 1 -->
<svg width="1296pt" height="369pt"
 viewBox="0.00 0.00 1296.38 369.00" xmlns="http://www.w3.org/2000/svg" xmlns:xlink="http://www.w3.org/1999/xlink">
<g id="graph0" class="graph" transform="scale(1 1) rotate(0) translate(4 365)">
<title>models_diagram</title>
<polygon fill="white" stroke="none" points="-4,4 -4,-365 1292.38,-365 1292.38,4 -4,4"/>
<!-- _diagram_info -->
<g id="node1" class="node"><title>_diagram_info</title>
<text text-anchor="start" x="284.257" y="-346.6" font-family="Times,serif" font-size="13.00">Models diagram</text>
<text text-anchor="start" x="284.257" y="-333.6" font-family="Times,serif" font-size="13.00">Date: Feb 24 2015 &#45; 00:43</text>
<text text-anchor="start" x="284.257" y="-320.6" font-family="Times,serif" font-size="13.00">Migration version: 20150219120843</text>
<text text-anchor="start" x="284.257" y="-307.6" font-family="Times,serif" font-size="13.00">Generated by RailRoady 1.3.0</text>
<text text-anchor="start" x="284.257" y="-294.6" font-family="Times,serif" font-size="13.00">http://railroady.prestonlee.com</text>
</g>
<!-- Bin -->
<g id="node2" class="node"><title>Bin</title>
<ellipse fill="none" stroke="black" cx="97.9445" cy="-90" rx="27" ry="18"/>
<text text-anchor="middle" x="97.9445" y="-85.8" font-family="Times,serif" font-size="14.00">Bin</text>
</g>
<!-- Document -->
<g id="node6" class="node"><title>Document</title>
<ellipse fill="none" stroke="black" cx="46.9445" cy="-18" rx="46.8891" ry="18"/>
<text text-anchor="middle" x="46.9445" y="-13.8" font-family="Times,serif" font-size="14.00">Document</text>
</g>
<!-- Bin&#45;&gt;Document -->
<g id="edge1" class="edge"><title>Bin&#45;&gt;Document</title>
<path fill="none" stroke="#b732ce" d="M81.7372,-66.7546C76.423,-59.4607 70.4851,-51.3106 65.0403,-43.8374"/>
<ellipse fill="none" stroke="#b732ce" cx="84.2705" cy="-70.2318" rx="4.00002" ry="4.00002"/>
<polygon fill="#b732ce" stroke="#b732ce" points="64.8307,-43.5496 62.5791,-32.8173 61.8863,-39.5084 58.942,-35.4672 58.942,-35.4672 58.942,-35.4672 61.8863,-39.5084 55.305,-38.1171 64.8307,-43.5496 64.8307,-43.5496"/>
</g>
<!-- Label -->
<g id="node8" class="node"><title>Label</title>
<ellipse fill="none" stroke="black" cx="148.945" cy="-18" rx="30.4775" ry="18"/>
<text text-anchor="middle" x="148.945" y="-13.8" font-family="Times,serif" font-size="14.00">Label</text>
</g>
<!-- Bin&#45;&gt;Label -->
<g id="edge2" class="edge"><title>Bin&#45;&gt;Label</title>
<path fill="none" stroke="#24942f" d="M114.009,-66.951C119.439,-59.4976 125.534,-51.1319 131.094,-43.5003"/>
<ellipse fill="none" stroke="#24942f" cx="111.619" cy="-70.2318" rx="4.00002" ry="4.00002"/>
<polygon fill="#24942f" stroke="#24942f" points="131.415,-43.0595 140.941,-37.627 134.36,-39.0183 137.304,-34.9772 137.304,-34.9772 137.304,-34.9772 134.36,-39.0183 133.667,-32.3273 131.415,-43.0595 131.415,-43.0595"/>
</g>
<!-- CategoryOfPlaylistsChannel -->
<g id="node3" class="node"><title>CategoryOfPlaylistsChannel</title>
<ellipse fill="none" stroke="black" cx="329.945" cy="-90" rx="111.103" ry="18"/>
<text text-anchor="middle" x="329.945" y="-85.8" font-family="Times,serif" font-size="14.00">CategoryOfPlaylistsChannel</text>
</g>
<!-- Playlist -->
<g id="node12" class="node"><title>Playlist</title>
<ellipse fill="none" stroke="black" cx="468.945" cy="-18" rx="36.7836" ry="18"/>
<text text-anchor="middle" x="468.945" y="-13.8" font-family="Times,serif" font-size="14.00">Playlist</text>
</g>
<!-- CategoryOfPlaylistsChannel&#45;&gt;Playlist -->
<g id="edge4" class="edge"><title>CategoryOfPlaylistsChannel&#45;&gt;Playlist</title>
<path fill="none" stroke="#0b92e0" d="M371.324,-68.1613C391.721,-57.8893 416.006,-45.6598 435.251,-35.9681"/>
<polygon fill="#0b92e0" stroke="#0b92e0" points="371.115,-68.2668 360.159,-68.7455 366.649,-70.5157 362.183,-72.7646 362.183,-72.7646 362.183,-72.7646 366.649,-70.5157 364.207,-76.7838 371.115,-68.2668 371.115,-68.2668"/>
<polygon fill="#0b92e0" stroke="#0b92e0" points="435.323,-35.9318 446.278,-35.4531 439.789,-33.6829 444.254,-31.4339 444.254,-31.4339 444.254,-31.4339 439.789,-33.6829 442.23,-27.4148 435.323,-35.9318 435.323,-35.9318"/>
</g>
<!-- Channel -->
<g id="node4" class="node"><title>Channel</title>
<ellipse fill="none" stroke="black" cx="1215.94" cy="-162" rx="39.6558" ry="18"/>
<text text-anchor="middle" x="1215.94" y="-157.8" font-family="Times,serif" font-size="14.00">Channel</text>
</g>
<!-- Comment -->
<g id="node5" class="node"><title>Comment</title>
<ellipse fill="none" stroke="black" cx="835.945" cy="-18" rx="44.9768" ry="18"/>
<text text-anchor="middle" x="835.945" y="-13.8" font-family="Times,serif" font-size="14.00">Comment</text>
</g>
<!-- Channel&#45;&gt;Comment -->
<g id="edge6" class="edge"><title>Channel&#45;&gt;Comment</title>
<path fill="none" stroke="#bfb583" d="M1178.66,-147.066C1107.19,-120.359 951.427,-62.1541 877.06,-34.3643"/>
<ellipse fill="none" stroke="#bfb583" cx="1182.7" cy="-148.575" rx="4.00001" ry="4.00001"/>
<polygon fill="#bfb583" stroke="#bfb583" points="876.918,-34.3112 869.126,-26.5955 872.234,-32.561 867.551,-30.8108 867.551,-30.8108 867.551,-30.8108 872.234,-32.561 865.976,-35.0261 876.918,-34.3112 876.918,-34.3112"/>
</g>
<!-- Event -->
<g id="node7" class="node"><title>Event</title>
<ellipse fill="none" stroke="black" cx="300.945" cy="-162" rx="30.9706" ry="18"/>
<text text-anchor="middle" x="300.945" y="-157.8" font-family="Times,serif" font-size="14.00">Event</text>
</g>
<!-- Event&#45;&gt;Bin -->
<g id="edge10" class="edge"><title>Event&#45;&gt;Bin</title>
<path fill="none" stroke="#85db61" d="M267.647,-149.518C229.9,-136.502 168.735,-115.41 131.063,-102.42"/>
<ellipse fill="none" stroke="#85db61" cx="271.453" cy="-150.83" rx="4.00001" ry="4.00001"/>
<polygon fill="#85db61" stroke="#85db61" points="131.014,-102.403 123.027,-94.8891 126.287,-100.773 121.56,-99.1433 121.56,-99.1433 121.56,-99.1433 126.287,-100.773 120.093,-103.397 131.014,-102.403 131.014,-102.403"/>
</g>
<!-- Event&#45;&gt;Comment -->
<g id="edge11" class="edge"><title>Event&#45;&gt;Comment</title>
<path fill="none" stroke="#a51fc5" d="M337.49,-153.093C373.139,-144.614 428.355,-129.417 472.945,-108 498.613,-95.6709 499.532,-82.6414 525.945,-72 610.858,-37.7891 717.52,-25.6562 781.018,-21.3564"/>
<ellipse fill="none" stroke="#a51fc5" cx="333.205" cy="-154.093" rx="4.00001" ry="4.00001"/>
<polygon fill="#a51fc5" stroke="#a51fc5" points="781.23,-21.343 791.496,-25.1996 786.22,-21.0259 791.21,-20.7087 791.21,-20.7087 791.21,-20.7087 786.22,-21.0259 790.925,-16.2178 781.23,-21.343 781.23,-21.343"/>
</g>
<!-- Media -->
<g id="node9" class="node"><title>Media</title>
<ellipse fill="none" stroke="black" cx="567.945" cy="-90" rx="32.8994" ry="18"/>
<text text-anchor="middle" x="567.945" y="-85.8" font-family="Times,serif" font-size="14.00">Media</text>
</g>
<!-- Event&#45;&gt;Media -->
<g id="edge13" class="edge"><title>Event&#45;&gt;Media</title>
<path fill="none" stroke="#44700a" d="M334.998,-147.491C338.666,-146.229 342.365,-145.037 345.945,-144 422.213,-121.9 444.521,-129.56 520.945,-108 524.582,-106.974 528.343,-105.804 532.08,-104.57"/>
<polygon fill="#44700a" stroke="#44700a" points="334.87,-147.537 323.936,-146.701 330.167,-149.236 325.464,-150.934 325.464,-150.934 325.464,-150.934 330.167,-149.236 326.993,-155.166 334.87,-147.537 334.87,-147.537"/>
<polygon fill="#44700a" stroke="#44700a" points="532.361,-104.473 543.282,-105.46 537.087,-102.84 541.813,-101.207 541.813,-101.207 541.813,-101.207 537.087,-102.84 540.343,-96.954 532.361,-104.473 532.361,-104.473"/>
</g>
<!-- Event&#45;&gt;Playlist -->
<g id="edge12" class="edge"><title>Event&#45;&gt;Playlist</title>
<path fill="none" stroke="#a5c307" d="M335.725,-147.75C339.173,-146.47 342.624,-145.202 345.945,-144 391.939,-127.355 417.547,-144.646 449.945,-108 464.778,-91.2209 469.01,-65.7364 469.833,-46.3313"/>
<polygon fill="#a5c307" stroke="#a5c307" points="335.492,-147.838 324.548,-147.131 330.809,-149.591 326.127,-151.345 326.127,-151.345 326.127,-151.345 330.809,-149.591 327.705,-155.559 335.492,-147.838 335.492,-147.838"/>
<polygon fill="#a5c307" stroke="#a5c307" points="469.834,-46.269 474.484,-36.3381 469.909,-41.2695 469.985,-36.2701 469.985,-36.2701 469.985,-36.2701 469.909,-41.2695 465.485,-36.2021 469.834,-46.269 469.834,-46.269"/>
</g>
<!-- Media&#45;&gt;Comment -->
<g id="edge16" class="edge"><title>Media&#45;&gt;Comment</title>
<path fill="none" stroke="#3914db" d="M604.72,-79.3944C652.742,-66.8515 736.844,-44.8845 789.297,-31.184"/>
<ellipse fill="none" stroke="#3914db" cx="600.75" cy="-80.4314" rx="4.00001" ry="4.00001"/>
<polygon fill="#3914db" stroke="#3914db" points="789.351,-31.17 800.164,-32.9967 794.189,-29.9064 799.026,-28.6428 799.026,-28.6428 799.026,-28.6428 794.189,-29.9064 797.889,-24.2889 789.351,-31.17 789.351,-31.17"/>
</g>
<!-- MediaTreatment -->
<g id="node11" class="node"><title>MediaTreatment</title>
<ellipse fill="none" stroke="black" cx="1144.94" cy="-18" rx="68.9594" ry="18"/>
<text text-anchor="middle" x="1144.94" y="-13.8" font-family="Times,serif" font-size="14.00">MediaTreatment</text>
</g>
<!-- Media&#45;&gt;MediaTreatment -->
<g id="edge17" class="edge"><title>Media&#45;&gt;MediaTreatment</title>
<path fill="none" stroke="#56c704" d="M607.767,-84.1689C704.698,-72.4095 953.872,-42.1803 1075.74,-27.3953"/>
<ellipse fill="none" stroke="#56c704" cx="603.759" cy="-84.655" rx="4.00001" ry="4.00001"/>
<ellipse fill="#56c704" stroke="#56c704" cx="1079.97" cy="-26.8828" rx="4.00001" ry="4.00001"/>
</g>
<!-- Media&#45;&gt;Playlist -->
<g id="edge18" class="edge"><title>Media&#45;&gt;Playlist</title>
<path fill="none" stroke="#3a1886" d="M539.852,-69.1364C526.593,-59.7618 510.797,-48.5926 497.482,-39.1782"/>
<polygon fill="#3a1886" stroke="#3a1886" points="540.22,-69.3969 545.787,-78.8446 544.303,-72.2836 548.385,-75.1703 548.385,-75.1703 548.385,-75.1703 544.303,-72.2836 550.983,-71.4959 540.22,-69.3969 540.22,-69.3969"/>
<polygon fill="#3a1886" stroke="#3a1886" points="497.308,-39.0549 491.741,-29.6073 493.225,-36.1683 489.143,-33.2816 489.143,-33.2816 489.143,-33.2816 493.225,-36.1683 486.545,-36.9559 497.308,-39.0549 497.308,-39.0549"/>
</g>
<!-- MediaCategory -->
<g id="node10" class="node"><title>MediaCategory</title>
<ellipse fill="none" stroke="black" cx="359.945" cy="-234" rx="65.2304" ry="18"/>
<text text-anchor="middle" x="359.945" y="-229.8" font-family="Times,serif" font-size="14.00">MediaCategory</text>
</g>
<!-- MediaCategory&#45;&gt;Media -->
<g id="edge20" class="edge"><title>MediaCategory&#45;&gt;Media</title>
<path fill="none" stroke="#9cfdbc" d="M368.709,-208.224C376.967,-188.246 391.193,-160.799 411.945,-144 451.599,-111.9 472.729,-124.678 520.945,-108 524.43,-106.794 528.053,-105.521 531.673,-104.234"/>
<ellipse fill="none" stroke="#9cfdbc" cx="367.206" cy="-212.023" rx="4.00001" ry="4.00001"/>
<polygon fill="#9cfdbc" stroke="#9cfdbc" points="531.734,-104.213 542.666,-105.076 536.441,-102.526 541.148,-100.839 541.148,-100.839 541.148,-100.839 536.441,-102.526 539.63,-96.6031 531.734,-104.213 531.734,-104.213"/>
</g>
<!-- SystemProfil -->
<g id="node13" class="node"><title>SystemProfil</title>
<ellipse fill="none" stroke="black" cx="498.945" cy="-234" rx="55.6198" ry="18"/>
<text text-anchor="middle" x="498.945" y="-229.8" font-family="Times,serif" font-size="14.00">SystemProfil</text>
</g>
<!-- SystemProfil&#45;&gt;Media -->
<g id="edge24" class="edge"><title>SystemProfil&#45;&gt;Media</title>
<path fill="none" stroke="#b2b16e" d="M458.35,-215.115C444.181,-206.652 429.854,-195.046 421.945,-180 414.5,-165.838 412.762,-157.103 421.945,-144 422.049,-143.851 488.348,-119.822 531.556,-104.174"/>
<ellipse fill="none" stroke="#b2b16e" cx="462.224" cy="-217.294" rx="4.00002" ry="4.00002"/>
<polygon fill="#b2b16e" stroke="#b2b16e" points="531.789,-104.09 542.723,-104.916 536.49,-102.388 541.191,-100.685 541.191,-100.685 541.191,-100.685 536.49,-102.388 539.659,-96.4539 531.789,-104.09 531.789,-104.09"/>
</g>
<!-- User -->
<g id="node14" class="node"><title>User</title>
<ellipse fill="none" stroke="black" cx="778.945" cy="-234" rx="27" ry="18"/>
<text text-anchor="middle" x="778.945" y="-229.8" font-family="Times,serif" font-size="14.00">User</text>
</g>
<!-- User&#45;&gt;Channel -->
<g id="edge26" class="edge"><title>User&#45;&gt;Channel</title>
<path fill="none" stroke="#18f5c4" d="M814.034,-230.64C882.768,-225.488 1039.63,-211.115 1167.94,-180 1171.67,-179.097 1175.51,-178.012 1179.32,-176.834"/>
<ellipse fill="none" stroke="#18f5c4" cx="809.697" cy="-230.958" rx="4" ry="4"/>
<ellipse fill="#18f5c4" stroke="#18f5c4" cx="1183.24" cy="-175.552" rx="4.00001" ry="4.00001"/>
</g>
<!-- User&#45;&gt;Comment -->
<g id="edge31" class="edge"><title>User&#45;&gt;Comment</title>
<path fill="none" stroke="#28827c" d="M795.437,-211.043C801.545,-201.885 807.949,-190.863 811.945,-180 828.509,-134.962 833.658,-78.8371 835.248,-46.148"/>
<ellipse fill="none" stroke="#28827c" cx="793.144" cy="-214.36" rx="4.00002" ry="4.00002"/>
<polygon fill="#28827c" stroke="#28827c" points="835.254,-46.0022 840.158,-36.1941 835.458,-41.0063 835.662,-36.0105 835.662,-36.0105 835.662,-36.0105 835.458,-41.0063 831.166,-35.8268 835.254,-46.0022 835.254,-46.0022"/>
</g>
<!-- User&#45;&gt;Event -->
<g id="edge27" class="edge"><title>User&#45;&gt;Event</title>
<path fill="none" stroke="#20fd11" d="M744.987,-228.027C658.926,-215.424 432.591,-182.279 340.635,-168.812"/>
<ellipse fill="none" stroke="#20fd11" cx="748.948" cy="-228.607" rx="4.00001" ry="4.00001"/>
<polygon fill="#20fd11" stroke="#20fd11" points="340.513,-168.795 331.27,-162.893 335.565,-168.07 330.618,-167.346 330.618,-167.346 330.618,-167.346 335.565,-168.07 329.966,-171.798 340.513,-168.795 340.513,-168.795"/>
</g>
<!-- User&#45;&gt;Media -->
<g id="edge32" class="edge"><title>User&#45;&gt;Media</title>
<path fill="none" stroke="#328946" d="M774.31,-208.024C769.346,-188.048 759.529,-160.708 740.945,-144 704.752,-111.462 649.001,-98.8959 610.623,-94.0453"/>
<ellipse fill="none" stroke="#328946" cx="775.26" cy="-212.182" rx="4.00001" ry="4.00001"/>
<polygon fill="#328946" stroke="#328946" points="610.225,-94.0002 600.797,-88.4003 605.257,-93.4359 600.289,-92.8715 600.289,-92.8715 600.289,-92.8715 605.257,-93.4359 599.781,-97.3428 610.225,-94.0002 610.225,-94.0002"/>
</g>
<!-- User&#45;&gt;Playlist -->
<g id="edge29" class="edge"><title>User&#45;&gt;Playlist</title>
<path fill="none" stroke="#8125ce" d="M781.371,-207.731C781.883,-188.452 779.542,-162.197 765.945,-144 705.314,-62.8574 581.876,-33.9653 514.806,-24.0034"/>
<ellipse fill="none" stroke="#8125ce" cx="781.176" cy="-211.788" rx="4" ry="4"/>
<polygon fill="#8125ce" stroke="#8125ce" points="514.447,-23.953 505.17,-18.1057 509.495,-23.2575 504.544,-22.562 504.544,-22.562 504.544,-22.562 509.495,-23.2575 503.918,-27.0182 514.447,-23.953 514.447,-23.953"/>
</g>
<!-- UserAbout -->
<g id="node15" class="node"><title>UserAbout</title>
<ellipse fill="none" stroke="black" cx="512.945" cy="-162" rx="48.8273" ry="18"/>
<text text-anchor="middle" x="512.945" y="-157.8" font-family="Times,serif" font-size="14.00">UserAbout</text>
</g>
<!-- User&#45;&gt;UserAbout -->
<g id="edge30" class="edge"><title>User&#45;&gt;UserAbout</title>
<path fill="none" stroke="#c2b2a8" d="M746.111,-225.017C705.039,-214.943 632.607,-196.887 570.945,-180 566.643,-178.822 562.172,-177.567 557.705,-176.292"/>
<ellipse fill="none" stroke="#c2b2a8" cx="750.01" cy="-225.972" rx="4.00001" ry="4.00001"/>
<ellipse fill="#c2b2a8" stroke="#c2b2a8" cx="553.551" cy="-175.096" rx="4.00001" ry="4.00001"/>
</g>
<!-- UserOnHoldVideo -->
<g id="node16" class="node"><title>UserOnHoldVideo</title>
<ellipse fill="none" stroke="black" cx="655.945" cy="-162" rx="76.2708" ry="18"/>
<text text-anchor="middle" x="655.945" y="-157.8" font-family="Times,serif" font-size="14.00">UserOnHoldVideo</text>
</g>
<!-- User&#45;&gt;UserOnHoldVideo -->
<g id="edge33" class="edge"><title>User&#45;&gt;UserOnHoldVideo</title>
<path fill="none" stroke="#da98a5" d="M751.825,-217.566C734.39,-207.644 711.525,-194.631 692.496,-183.802"/>
<ellipse fill="none" stroke="#da98a5" cx="755.432" cy="-219.619" rx="4.00002" ry="4.00002"/>
<polygon fill="#da98a5" stroke="#da98a5" points="692.472,-183.788 686.006,-174.931 688.126,-181.315 683.781,-178.842 683.781,-178.842 683.781,-178.842 688.126,-181.315 681.555,-182.753 692.472,-183.788 692.472,-183.788"/>
</g>
<!-- UserSubscription -->
<g id="node17" class="node"><title>UserSubscription</title>
<ellipse fill="none" stroke="black" cx="935.945" cy="-162" rx="71.529" ry="18"/>
<text text-anchor="middle" x="935.945" y="-157.8" font-family="Times,serif" font-size="14.00">UserSubscription</text>
</g>
<!-- User&#45;&gt;UserSubscription -->
<g id="edge28" class="edge"><title>User&#45;&gt;UserSubscription</title>
<path fill="none" stroke="#aaa7bd" d="M808.277,-219.922C832.126,-209.289 866.11,-194.136 893.021,-182.138"/>
<ellipse fill="none" stroke="#aaa7bd" cx="804.428" cy="-221.638" rx="4.00002" ry="4.00002"/>
<polygon fill="#aaa7bd" stroke="#aaa7bd" points="893.083,-182.11 904.048,-182.148 897.649,-180.074 902.216,-178.038 902.216,-178.038 902.216,-178.038 897.649,-180.074 900.383,-173.928 893.083,-182.11 893.083,-182.11"/>
</g>
<!-- UserVideoView -->
<g id="node18" class="node"><title>UserVideoView</title>
<ellipse fill="none" stroke="black" cx="1091.94" cy="-162" rx="66.5369" ry="18"/>
<text text-anchor="middle" x="1091.94" y="-157.8" font-family="Times,serif" font-size="14.00">UserVideoView</text>
</g>
<!-- User&#45;&gt;UserVideoView -->
<g id="edge34" class="edge"><title>User&#45;&gt;UserVideoView</title>
<path fill="none" stroke="#ba522b" d="M812.159,-225.645C858.168,-215.448 943.89,-196.414 1016.94,-180 1022.02,-178.859 1027.3,-177.67 1032.59,-176.476"/>
<ellipse fill="none" stroke="#ba522b" cx="808.218" cy="-226.518" rx="4.00001" ry="4.00001"/>
<polygon fill="#ba522b" stroke="#ba522b" points="1032.98,-176.388 1043.72,-178.572 1037.85,-175.285 1042.73,-174.183 1042.73,-174.183 1042.73,-174.183 1037.85,-175.285 1041.74,-169.794 1032.98,-176.388 1032.98,-176.388"/>
</g>
<!-- ActiveRecord::Base -->
<g id="node19" class="node"><title>ActiveRecord::Base</title>
<ellipse fill="none" stroke="black" cx="582.945" cy="-324.5" rx="81.1422" ry="18"/>
<text text-anchor="middle" x="582.945" y="-320.3" font-family="Times,serif" font-size="14.00">ActiveRecord::Base</text>
</g>
<!-- ActiveRecord::Base&#45;&gt;Bin -->
<g id="edge3" class="edge"><title>ActiveRecord::Base&#45;&gt;Bin</title>
<path fill="none" stroke="black" d="M549.893,-307.939C533.179,-300.725 512.367,-292.723 492.945,-288 416.111,-269.317 198.838,-303.626 138.945,-252 96.4509,-215.373 94.8607,-141.465 96.549,-108.069"/>
</g>
<!-- ActiveRecord::Base&#45;&gt;CategoryOfPlaylistsChannel -->
<g id="edge5" class="edge"><title>ActiveRecord::Base&#45;&gt;CategoryOfPlaylistsChannel</title>
<path fill="none" stroke="black" d="M548.913,-308.092C532.315,-301.093 511.888,-293.229 492.945,-288 397.861,-261.755 344.239,-321.199 273.945,-252 239.491,-218.083 239.572,-187.366 260.945,-144 268.624,-128.419 283.328,-116.141 297.195,-107.343"/>
</g>
<!-- ActiveRecord::Base&#45;&gt;Channel -->
<g id="edge7" class="edge"><title>ActiveRecord::Base&#45;&gt;Channel</title>
<path fill="none" stroke="black" d="M642.418,-312.186C709.805,-299.056 822.769,-276.105 918.945,-252 1030.69,-223.993 1058.27,-215.245 1167.94,-180 1173.84,-178.107 1180.09,-175.978 1186.08,-173.884"/>
</g>
<!-- ActiveRecord::Base&#45;&gt;Comment -->
<g id="edge8" class="edge"><title>ActiveRecord::Base&#45;&gt;Comment</title>
<path fill="none" stroke="black" d="M661.203,-319.369C824.446,-308.903 1192.19,-275.065 1264.94,-180 1274.67,-167.294 1274.38,-156.923 1264.94,-144 1218.58,-80.4796 976.564,-39.1681 877.889,-24.7302"/>
</g>
<!-- ActiveRecord::Base&#45;&gt;Document -->
<g id="edge9" class="edge"><title>ActiveRecord::Base&#45;&gt;Document</title>
<path fill="none" stroke="black" d="M549.909,-307.875C533.198,-300.646 512.384,-292.648 492.945,-288 409.802,-268.119 176.877,-305.178 109.945,-252 42.3575,-198.302 42.7494,-80.1515 45.4808,-36.0475"/>
</g>
<!-- ActiveRecord::Base&#45;&gt;Event -->
<g id="edge14" class="edge"><title>ActiveRecord::Base&#45;&gt;Event</title>
<path fill="none" stroke="black" d="M548.464,-307.991C531.94,-301.054 511.702,-293.271 492.945,-288 447.995,-275.369 315.998,-287.732 285.945,-252 268.697,-231.494 281.184,-198.673 291.377,-179.138"/>
</g>
<!-- ActiveRecord::Base&#45;&gt;Label -->
<g id="edge15" class="edge"><title>ActiveRecord::Base&#45;&gt;Label</title>
<path fill="none" stroke="black" d="M549.412,-307.99C532.757,-300.88 512.136,-292.951 492.945,-288 432.839,-272.494 263.018,-292.462 215.945,-252 150.35,-195.618 146.892,-79.6143 148.08,-36.0414"/>
</g>
<!-- ActiveRecord::Base&#45;&gt;Media -->
<g id="edge19" class="edge"><title>ActiveRecord::Base&#45;&gt;Media</title>
<path fill="none" stroke="black" d="M584.905,-306.353C586.576,-283.045 585.896,-241.366 563.945,-216 530.559,-177.422 484.832,-221.347 454.945,-180 445.571,-167.033 446.363,-157.504 454.945,-144 464.707,-128.638 510.321,-110.613 540.528,-100.037"/>
</g>
<!-- ActiveRecord::Base&#45;&gt;MediaCategory -->
<g id="edge21" class="edge"><title>ActiveRecord::Base&#45;&gt;MediaCategory</title>
<path fill="none" stroke="black" d="M545.116,-308.487C503.363,-291.917 436.664,-265.447 395.742,-249.207"/>
</g>
<!-- ActiveRecord::Base&#45;&gt;MediaTreatment -->
<g id="edge22" class="edge"><title>ActiveRecord::Base&#45;&gt;MediaTreatment</title>
<path fill="none" stroke="black" d="M661.216,-319.409C802.5,-311.177 1094.17,-290.068 1187.94,-252 1246.91,-228.064 1307.64,-202.218 1281.94,-144 1259.72,-93.6291 1206.06,-54.7778 1172.87,-34.5312"/>
</g>
<!-- ActiveRecord::Base&#45;&gt;Playlist -->
<g id="edge23" class="edge"><title>ActiveRecord::Base&#45;&gt;Playlist</title>
<path fill="none" stroke="black" d="M548.954,-307.94C532.366,-300.906 511.935,-293.056 492.945,-288 439.343,-273.728 287.083,-289.208 245.945,-252 197.018,-207.748 218.005,-173.475 209.945,-108 207.99,-92.1199 199.828,-84.396 209.945,-72 237.658,-38.0413 368.192,-25.2526 432.692,-20.9476"/>
</g>
<!-- ActiveRecord::Base&#45;&gt;SystemProfil -->
<g id="edge25" class="edge"><title>ActiveRecord::Base&#45;&gt;SystemProfil</title>
<path fill="none" stroke="black" d="M566.748,-306.436C551.683,-290.564 529.386,-267.073 514.523,-251.413"/>
</g>
<!-- ActiveRecord::Base&#45;&gt;User -->
<g id="edge35" class="edge"><title>ActiveRecord::Base&#45;&gt;User</title>
<path fill="none" stroke="black" d="M617.085,-308.084C657.337,-289.909 723.047,-260.239 757.037,-244.892"/>
</g>
<!-- ActiveRecord::Base&#45;&gt;UserAbout -->
<g id="edge36" class="edge"><title>ActiveRecord::Base&#45;&gt;UserAbout</title>
<path fill="none" stroke="black" d="M591.201,-306.304C600.608,-284.033 612.759,-244.677 596.945,-216 586.286,-196.672 565.286,-183.422 546.951,-175.004"/>
</g>
<!-- ActiveRecord::Base&#45;&gt;UserOnHoldVideo -->
<g id="edge37" class="edge"><title>ActiveRecord::Base&#45;&gt;UserOnHoldVideo</title>
<path fill="none" stroke="black" d="M590.757,-306.324C604.807,-275.432 634.179,-210.855 648.188,-180.053"/>
</g>
<!-- ActiveRecord::Base&#45;&gt;UserSubscription -->
<g id="edge38" class="edge"><title>ActiveRecord::Base&#45;&gt;UserSubscription</title>
<path fill="none" stroke="black" d="M639.809,-311.617C688.068,-300.229 758.293,-280.533 814.945,-252 854.538,-232.059 894.905,-199.355 917.558,-179.632"/>
</g>
<!-- ActiveRecord::Base&#45;&gt;UserVideoView -->
<g id="edge39" class="edge"><title>ActiveRecord::Base&#45;&gt;UserVideoView</title>
<path fill="none" stroke="black" d="M637.293,-311.038C692.734,-297.912 781.018,-275.868 855.945,-252 928.543,-228.874 1011.48,-196.069 1057.16,-177.426"/>
</g>
</g>
</svg>
